<?xml version="1.0" encoding="UTF-8"?>
<svg version="1.1" xmlns="http://www.w3.org/2000/svg" width="1024" height="1024">
<path d="M0 0 C337.92 0 675.84 0 1024 0 C1024 337.92 1024 675.84 1024 1024 C686.08 1024 348.16 1024 0 1024 C0 686.08 0 348.16 0 0 Z " fill="#FDFDFD" transform="translate(0,0)"/>
<path d="M0 0 C0.763125 0.09152344 1.52625 0.18304688 2.3125 0.27734375 C2.94012455 1.50517237 3.56446065 2.73468211 4.1875 3.96484375 C4.55617188 4.691875 4.92484375 5.41890625 5.3046875 6.16796875 C6.3125 8.27734375 6.3125 8.27734375 7.3125 11.21484375 C8.12109326 13.48209356 8.12109326 13.48209356 10.4375 14.08984375 C11.365625 14.18265625 11.365625 14.18265625 12.3125 14.27734375 C12.6528125 13.44203125 12.6528125 13.44203125 13 12.58984375 C14.72490914 9.55071811 16.63399829 7.5198103 19.3125 5.27734375 C21.98046875 5.13671875 21.98046875 5.13671875 24.3125 5.27734375 C24.81762244 6.87990483 25.31641627 8.48446167 25.8125 10.08984375 C26.23015625 11.42982422 26.23015625 11.42982422 26.65625 12.796875 C27.3125 15.27734375 27.3125 15.27734375 27.3125 18.27734375 C30.05973247 18.69724448 30.05973247 18.69724448 33.3125 18.27734375 C35.3292658 16.63100432 37.32989574 14.96466652 39.3125 13.27734375 C42.0625 12.83984375 42.0625 12.83984375 44.3125 13.27734375 C47.08292109 16.04776484 46.71046106 18.0426818 46.9375 21.90234375 C47.04964844 23.68511719 47.04964844 23.68511719 47.1640625 25.50390625 C47.21304688 26.41914063 47.26203125 27.334375 47.3125 28.27734375 C51.16831643 29.36831201 51.16831643 29.36831201 54.75 27.83984375 C55.595625 27.32421875 56.44125 26.80859375 57.3125 26.27734375 C60.5625 26.02734375 60.5625 26.02734375 63.3125 26.27734375 C64.3125 27.27734375 64.3125 27.27734375 64.375 30.40234375 C64.33333333 32.98567708 64.29166667 35.56901042 64.25 38.15234375 C63.94885467 41.14464045 63.94885467 41.14464045 65.3125 42.27734375 C67.84299402 42.35047942 70.34554837 42.36981902 72.875 42.33984375 C73.58591797 42.33533203 74.29683594 42.33082031 75.02929688 42.32617188 C76.79040013 42.31435239 78.55146036 42.29641638 80.3125 42.27734375 C81.61539011 47.28318471 80.33247687 49.5640644 78.3125 54.27734375 C78.66140964 56.94127143 78.66140964 56.94127143 79.3125 59.27734375 C80.22773438 59.32632813 81.14296875 59.3753125 82.0859375 59.42578125 C83.27445313 59.50054688 84.46296875 59.5753125 85.6875 59.65234375 C87.46253906 59.75675781 87.46253906 59.75675781 89.2734375 59.86328125 C92.3125 60.27734375 92.3125 60.27734375 94.3125 62.27734375 C94.20685192 66.08067474 93.23319382 67.36797938 90.6875 70.27734375 C89.90375 71.26734375 89.12 72.25734375 88.3125 73.27734375 C88.59401843 75.92678765 88.59401843 75.92678765 89.3125 78.27734375 C90.16714844 78.48230469 91.02179688 78.68726563 91.90234375 78.8984375 C93.00707031 79.16785156 94.11179687 79.43726563 95.25 79.71484375 C96.35214844 79.98167969 97.45429688 80.24851562 98.58984375 80.5234375 C101.3125 81.27734375 101.3125 81.27734375 102.3125 82.27734375 C102.8125 84.46484375 102.8125 84.46484375 102.3125 87.27734375 C100.75 88.73046875 100.75 88.73046875 98.8125 90.21484375 C95.61487902 92.62516603 95.61487902 92.62516603 94.875 96.65234375 C95.0915625 97.95171875 95.0915625 97.95171875 95.3125 99.27734375 C96.01117188 99.47070312 96.70984375 99.6640625 97.4296875 99.86328125 C98.33976563 100.12367188 99.24984375 100.3840625 100.1875 100.65234375 C101.09242188 100.90757812 101.99734375 101.1628125 102.9296875 101.42578125 C105.3125 102.27734375 105.3125 102.27734375 107.3125 104.27734375 C107.4375 106.58984375 107.4375 106.58984375 106.3125 109.27734375 C100.10326087 114.27734375 100.10326087 114.27734375 96.3125 114.27734375 C96.10455082 117.07446518 96.10455082 117.07446518 97.3125 120.27734375 C99.53688584 122.01928122 101.81738399 123.4050794 104.28125 124.78515625 C106.3125 126.27734375 106.3125 126.27734375 107.09375 128.45703125 C107.1659375 129.05773437 107.238125 129.6584375 107.3125 130.27734375 C103.5565786 133.70666329 99.07783255 134.84163458 94.3125 136.27734375 C93.72286322 138.51959033 93.72286322 138.51959033 94.3125 141.27734375 C96.00214435 142.93232873 97.82048563 144.33270493 99.6796875 145.79296875 C101.3125 147.27734375 101.3125 147.27734375 102.375 150.02734375 C102.3125 152.27734375 102.3125 152.27734375 100.3125 154.27734375 C97.4921875 154.91015625 97.4921875 154.91015625 94.1875 155.40234375 C93.09179688 155.56992187 91.99609375 155.7375 90.8671875 155.91015625 C90.02414062 156.03132812 89.18109375 156.1525 88.3125 156.27734375 C88.07130534 160.45412932 88.10048089 162.71202478 90.875 165.90234375 C92.31640625 167.56640625 92.31640625 167.56640625 93.3125 169.27734375 C93.03064631 171.40089893 92.84523729 172.74460646 91.3125 174.27734375 C88.96262738 174.51262148 86.60693961 174.69120792 84.25 174.83984375 C82.95964844 174.92363281 81.66929687 175.00742187 80.33984375 175.09375 C79.34082031 175.15433594 78.34179688 175.21492187 77.3125 175.27734375 C76.07893243 180.12175148 77.05577367 181.85416014 79.3125 186.27734375 C79.625 189.52734375 79.625 189.52734375 79.3125 192.27734375 C78.6525 192.93734375 77.9925 193.59734375 77.3125 194.27734375 C74.58225584 194.04596713 72.00621375 193.71813327 69.3125 193.27734375 C66.97955505 192.94130297 64.64628271 192.60751615 62.3125 192.27734375 C62.25191406 193.42074219 62.19132813 194.56414062 62.12890625 195.7421875 C62.04451572 197.2330868 61.95986698 198.7239715 61.875 200.21484375 C61.83568359 200.96958984 61.79636719 201.72433594 61.75585938 202.50195312 C61.42578125 208.1640625 61.42578125 208.1640625 60.3125 209.27734375 C56.21460331 208.89790887 53.77291065 208.58428418 50.3125 206.27734375 C47.98050612 206.19829311 45.64417378 206.18935606 43.3125 206.27734375 C43.17972656 207.20417969 43.04695312 208.13101563 42.91015625 209.0859375 C42.73355469 210.28347656 42.55695313 211.48101563 42.375 212.71484375 C42.20097656 213.90980469 42.02695312 215.10476563 41.84765625 216.3359375 C41.3125 219.27734375 41.3125 219.27734375 40.3125 220.27734375 C37.625 220.71484375 37.625 220.71484375 34.3125 220.27734375 C32.828125 218.9375 32.828125 218.9375 31.375 217.27734375 C28.83430594 214.40642685 28.58357023 214.30357635 24.4375 213.90234375 C23.40625 214.02609375 22.375 214.14984375 21.3125 214.27734375 C21.19132813 215.04820312 21.07015625 215.8190625 20.9453125 216.61328125 C20.77773438 217.61617187 20.61015625 218.6190625 20.4375 219.65234375 C20.19386719 221.14894531 20.19386719 221.14894531 19.9453125 222.67578125 C19.3125 225.27734375 19.3125 225.27734375 17.3125 227.27734375 C14.87109375 227.6484375 14.87109375 227.6484375 12.3125 227.27734375 C10.72265625 225.5625 10.72265625 225.5625 9.375 223.33984375 C6.99923271 219.77981332 6.99923271 219.77981332 2.9375 218.27734375 C2.07125 218.27734375 1.205 218.27734375 0.3125 218.27734375 C0.23 218.79296875 0.1475 219.30859375 0.0625 219.83984375 C-1.00890225 223.32190107 -2.82273605 226.1493526 -4.6875 229.27734375 C-7 229.58984375 -7 229.58984375 -9.6875 229.27734375 C-11.3125 227.15234375 -11.3125 227.15234375 -12.6875 224.27734375 C-13.244375 223.18421875 -13.80125 222.09109375 -14.375 220.96484375 C-14.808125 220.07796875 -15.24125 219.19109375 -15.6875 218.27734375 C-18.04020085 217.94275025 -18.04020085 217.94275025 -20.6875 218.27734375 C-22.61782436 220.00670673 -22.61782436 220.00670673 -24.1875 222.27734375 C-27.0531859 226.17035101 -27.0531859 226.17035101 -30.28125 226.71484375 C-31.47234375 226.49828125 -31.47234375 226.49828125 -32.6875 226.27734375 C-34.59515822 223.41585642 -35.1158509 221.92433996 -35.75 218.65234375 C-36.15844016 215.67964723 -36.15844016 215.67964723 -37.6875 213.27734375 C-42.14389732 213.44874365 -44.10338973 213.69323348 -47.3125 216.90234375 C-48.09625 217.68609375 -48.88 218.46984375 -49.6875 219.27734375 C-53.87797619 219.08686756 -53.87797619 219.08686756 -55.6875 217.27734375 C-56.08416227 215.09714896 -56.43065237 212.90769745 -56.75 210.71484375 C-57.01490234 208.91853516 -57.01490234 208.91853516 -57.28515625 207.0859375 C-57.41792969 206.15910156 -57.55070312 205.23226562 -57.6875 204.27734375 C-62.52026691 204.11780261 -64.59828077 204.76090114 -68.6875 207.27734375 C-71.375 207.58984375 -71.375 207.58984375 -73.6875 207.27734375 C-75.6875 205.27734375 -75.6875 205.27734375 -75.84765625 202.0546875 C-75.81542969 200.78753906 -75.78320312 199.52039063 -75.75 198.21484375 C-75.69601506 195.9028801 -75.66703537 193.58984704 -75.6875 191.27734375 C-76.78451184 189.96083037 -76.78451184 189.96083037 -79.5 190.08984375 C-82.60043012 190.05634048 -82.60043012 190.05634048 -84.75 191.33984375 C-87.38517166 192.61492681 -88.94011389 192.09413422 -91.6875 191.27734375 C-92.0175 190.94734375 -92.3475 190.61734375 -92.6875 190.27734375 C-92.6015625 188.38671875 -92.6015625 188.38671875 -92.3125 186.02734375 C-92.21453125 185.21652344 -92.1165625 184.40570312 -92.015625 183.5703125 C-91.7645796 181.81598336 -91.43130847 180.07324354 -91.0625 178.33984375 C-90.46458333 176.22317708 -90.46458333 176.22317708 -91.6875 174.27734375 C-94.01133502 173.99557875 -96.34926824 173.82562691 -98.6875 173.71484375 C-105.59099947 173.37384428 -105.59099947 173.37384428 -106.6875 172.27734375 C-106.39916155 168.52894392 -106.05728973 165.87469638 -104.0625 162.65234375 C-102.33723979 159.67234884 -102.87995945 158.51827314 -103.6875 155.27734375 C-104.46996094 155.14457031 -105.25242188 155.01179687 -106.05859375 154.875 C-107.07050781 154.69839844 -108.08242187 154.52179688 -109.125 154.33984375 C-110.13433594 154.16582031 -111.14367187 153.99179687 -112.18359375 153.8125 C-114.6875 153.27734375 -114.6875 153.27734375 -115.6875 152.27734375 C-116.1875 150.15234375 -116.1875 150.15234375 -115.6875 147.27734375 C-113.93582516 145.40146702 -112.09914344 143.75597302 -110.12109375 142.12109375 C-108.36723098 140.30479356 -108.36723098 140.30479356 -108.97265625 137.55859375 C-109.20855469 136.80578125 -109.44445312 136.05296875 -109.6875 135.27734375 C-110.38617188 135.08398438 -111.08484375 134.890625 -111.8046875 134.69140625 C-112.71476563 134.43101562 -113.62484375 134.170625 -114.5625 133.90234375 C-115.46742188 133.64710938 -116.37234375 133.391875 -117.3046875 133.12890625 C-119.6875 132.27734375 -119.6875 132.27734375 -121.6875 130.27734375 C-121.8125 127.96484375 -121.8125 127.96484375 -120.6875 125.27734375 C-118.83203125 124.05078125 -118.83203125 124.05078125 -116.625 122.83984375 C-114.446266 121.68864795 -114.446266 121.68864795 -112.6875 120.27734375 C-112.01737578 117.06326235 -112.01737578 117.06326235 -112.6875 114.27734375 C-113.32558594 113.97441406 -113.96367187 113.67148437 -114.62109375 113.359375 C-115.44738281 112.94042969 -116.27367187 112.52148438 -117.125 112.08984375 C-118.36056641 111.48076172 -118.36056641 111.48076172 -119.62109375 110.859375 C-121.6875 109.27734375 -121.6875 109.27734375 -122.47265625 106.6015625 C-122.54355469 105.83457031 -122.61445313 105.06757812 -122.6875 104.27734375 C-118.8148638 101.81293889 -114.91789958 100.01927299 -110.6875 98.27734375 C-110.65497064 95.98542526 -110.65497064 95.98542526 -111.6875 93.27734375 C-113.323708 91.73422653 -113.323708 91.73422653 -115.25 90.27734375 C-118.63699718 87.60921944 -118.63699718 87.60921944 -119.125 84.40234375 C-118.980625 83.70109375 -118.83625 82.99984375 -118.6875 82.27734375 C-115.98100731 80.58578582 -113.6213867 80.06228715 -110.5 79.71484375 C-106.90559061 79.70272841 -106.90559061 79.70272841 -105.6875 78.27734375 C-105.09786322 76.03509717 -105.09786322 76.03509717 -105.6875 73.27734375 C-107.17803841 71.42263971 -108.75765059 69.76998808 -110.47265625 68.12109375 C-111.6875 66.27734375 -111.6875 66.27734375 -110.6875 61.27734375 C-106.3975 61.27734375 -102.1075 61.27734375 -97.6875 61.27734375 C-96.25336012 55.87469778 -96.25336012 55.87469778 -97.46484375 53.3359375 C-97.84769531 52.80097656 -98.23054688 52.26601563 -98.625 51.71484375 C-100.95311219 48.42391906 -100.6875 47.89667632 -100.6875 43.27734375 C-95.0775 43.27734375 -89.4675 43.27734375 -83.6875 43.27734375 C-84.1825 41.23546875 -84.1825 41.23546875 -84.6875 39.15234375 C-85.50992922 35.45432867 -85.97294846 32.08332328 -85.6875 28.27734375 C-85.1925 27.78234375 -85.1925 27.78234375 -84.6875 27.27734375 C-81.98641496 27.36825975 -79.31819689 27.51475141 -76.625 27.71484375 C-75.86638672 27.76705078 -75.10777344 27.81925781 -74.32617188 27.87304688 C-72.44628278 28.0031021 -70.56684315 28.13962413 -68.6875 28.27734375 C-68.59662109 26.88708984 -68.59662109 26.88708984 -68.50390625 25.46875 C-68.42011719 24.27121094 -68.33632812 23.07367188 -68.25 21.83984375 C-68.16878906 20.64488281 -68.08757812 19.44992187 -68.00390625 18.21875 C-67.6875 15.27734375 -67.6875 15.27734375 -66.6875 14.27734375 C-61.83507461 13.58414012 -59.61324379 15.66018122 -55.6875 18.27734375 C-53.06218476 18.44447944 -53.06218476 18.44447944 -50.6875 18.27734375 C-50.48253906 17.49488281 -50.27757812 16.71242188 -50.06640625 15.90625 C-49.79699219 14.89433594 -49.52757812 13.88242187 -49.25 12.83984375 C-48.98316406 11.83050781 -48.71632813 10.82117188 -48.44140625 9.78125 C-47.6875 7.27734375 -47.6875 7.27734375 -46.6875 6.27734375 C-44.5625 5.77734375 -44.5625 5.77734375 -41.6875 6.27734375 C-39.77488621 7.98885497 -38.10574913 9.79975123 -36.43359375 11.74609375 C-34.57333643 13.71690225 -34.57333643 13.71690225 -30.6875 13.27734375 C-28.7075 9.31734375 -26.7275 5.35734375 -24.6875 1.27734375 C-23.0375 1.27734375 -21.3875 1.27734375 -19.6875 1.27734375 C-17.88671875 3.24609375 -17.88671875 3.24609375 -16.375 5.77734375 C-15.86324219 6.61265625 -15.35148437 7.44796875 -14.82421875 8.30859375 C-14.44910156 8.95828125 -14.07398438 9.60796875 -13.6875 10.27734375 C-11.28190523 10.12787975 -11.28190523 10.12787975 -8.6875 9.27734375 C-6.92661133 7.03813677 -5.68201328 4.70485231 -4.3125 2.2109375 C-2.6875 0.27734375 -2.6875 0.27734375 0 0 Z " fill="#283444" transform="translate(292.6875,458.72265625)"/>
<path d="M0 0 C1.52043159 0.04655731 1.52043159 0.04655731 3.07157898 0.09405518 C4.00218643 0.13528503 4.93279388 0.17651489 5.89160156 0.21899414 C7.11777191 0.2711483 7.11777191 0.2711483 8.36871338 0.32435608 C10.359375 0.65234375 10.359375 0.65234375 12.359375 2.65234375 C12.60547066 5.47530556 12.60547066 5.47530556 12.59988403 9.15689087 C12.60159288 9.83238586 12.60330173 10.50788085 12.60506237 11.20384538 C12.60836897 13.47796288 12.5973346 15.75178838 12.58642578 18.02587891 C12.58586192 19.65176893 12.58617774 21.27765947 12.58731079 22.90354919 C12.58788628 27.32688771 12.57610032 31.75011847 12.56216288 36.17343187 C12.54968813 40.79256683 12.5484876 45.41170407 12.54611206 50.03085327 C12.53988769 58.78209609 12.52346397 67.53328914 12.50341308 76.28451002 C12.4810838 86.24566582 12.47006814 96.20682396 12.46002221 106.16799855 C12.43909855 126.6628081 12.40390403 147.15757279 12.359375 167.65234375 C10.93902954 167.65448128 10.93902954 167.65448128 9.48999023 167.65666199 C0.54483332 167.67336722 -8.39987072 167.71624812 -17.3447876 167.78443432 C-21.94297749 167.81865333 -26.54083693 167.84380635 -31.13916016 167.84790039 C-35.58096347 167.85219431 -40.02202198 167.88074698 -44.46359253 167.92577553 C-46.15391697 167.93871573 -47.8443307 167.94307057 -49.53469849 167.93849754 C-61.97938945 167.77148681 -61.97938945 167.77148681 -72.640625 173.65234375 C-75.95215624 177.17752217 -76.48163677 180.06246143 -76.953125 184.77734375 C-76.34323811 192.33994122 -72.95531455 198.31127042 -68.9609375 204.65625 C-64.80115022 211.32679716 -60.88912696 218.12395913 -57.015625 224.96484375 C-55.6136361 227.43193425 -54.20949784 229.89779641 -52.8046875 232.36328125 C-52.45462646 232.9778569 -52.10456543 233.59243256 -51.74389648 234.22563171 C-48.33400525 240.20447064 -44.86827816 246.15019125 -41.390625 252.08984375 C-37.09939645 259.42104361 -32.84325534 266.76998611 -28.640625 274.15234375 C-23.16807393 283.76386053 -17.59987989 293.31795667 -12.01953125 302.8671875 C-7.6782797 310.29620476 -3.35996217 317.73816502 0.93701172 325.19287109 C2.51978045 327.92970807 4.11359135 330.65998848 5.70703125 333.390625 C6.8205754 335.3110455 7.93386198 337.23161538 9.046875 339.15234375 C9.57684082 340.05557373 10.10680664 340.95880371 10.65283203 341.8894043 C11.1373584 342.72898682 11.62188477 343.56856934 12.12109375 344.43359375 C12.55381592 345.17673828 12.98653809 345.91988281 13.43237305 346.68554688 C14.359375 348.65234375 14.359375 348.65234375 14.359375 351.65234375 C-2.42558503 351.69901808 -19.21052487 351.73431013 -35.9955349 351.75596809 C-43.78871197 351.76629054 -51.58184877 351.7803693 -59.375 351.80322266 C-66.16573253 351.82312698 -72.9564359 351.83605314 -79.74719679 351.84052074 C-83.34446484 351.84313316 -86.94164947 351.8492934 -90.53889084 351.86380386 C-94.54989101 351.87985282 -98.56074519 351.88032535 -102.57177734 351.87939453 C-103.77083206 351.88658508 -104.96988678 351.89377563 -106.20527649 351.90118408 C-107.29345169 351.89843475 -108.38162689 351.89568542 -109.5027771 351.89285278 C-110.92694726 351.89561816 -110.92694726 351.89561816 -112.37988853 351.89843941 C-114.640625 351.65234375 -114.640625 351.65234375 -116.640625 349.65234375 C-116.899378 347.46159387 -116.899378 347.46159387 -116.91186047 344.6753273 C-116.92139285 343.61609314 -116.93092524 342.55685898 -116.94074649 341.46552682 C-116.94121658 339.706132 -116.94121658 339.706132 -116.94169617 337.91119385 C-116.94975511 336.67231848 -116.95781405 335.4334431 -116.9661172 334.15702605 C-116.98633968 330.70700053 -116.99747442 327.25716116 -117.00468767 323.80709791 C-117.0145355 320.09052166 -117.03572561 316.37400667 -117.05519104 312.6574707 C-117.09950771 303.67639452 -117.12417654 294.695305 -117.1459789 285.71415007 C-117.15442906 282.33376644 -117.16402571 278.95338649 -117.17363387 275.57300599 C-117.21580803 260.67832763 -117.2517527 245.78364645 -117.27119732 230.88891983 C-117.27603709 227.2420272 -117.28091906 223.59513464 -117.28588867 219.94824219 C-117.28711846 219.04180016 -117.28834825 218.13535814 -117.28961531 217.20144817 C-117.3105749 202.51348637 -117.36914125 187.82592536 -117.44327118 173.13814548 C-117.51872057 158.0659426 -117.56033682 142.99394437 -117.56876212 127.92155242 C-117.57434567 119.45582229 -117.59490343 110.9906994 -117.65332603 102.52515411 C-117.70298022 95.31614358 -117.72210949 88.10787478 -117.70116379 80.89870909 C-117.6914163 77.21948072 -117.69630291 73.54179598 -117.74039078 69.86278534 C-117.78777396 65.87502935 -117.76552328 61.88939894 -117.7363739 57.90142822 C-117.76122523 56.73742123 -117.78607657 55.57341424 -117.81168097 54.3741343 C-117.67454507 46.71524203 -117.67454507 46.71524203 -114.67624438 43.63290644 C-112.3887916 42.08356163 -110.13308021 40.83689498 -107.640625 39.65234375 C-106.58504395 39.03077393 -105.52946289 38.4092041 -104.44189453 37.76879883 C-103.47880371 37.24181396 -102.51571289 36.7148291 -101.5234375 36.171875 C-100.43184326 35.57101074 -99.34024902 34.97014648 -98.21557617 34.35107422 C-97.07709229 33.72861816 -95.9386084 33.10616211 -94.765625 32.46484375 C-92.34623168 31.13278362 -89.9288252 29.79714198 -87.51171875 28.4609375 C-86.91710342 28.13252869 -86.3224881 27.80411987 -85.70985413 27.46575928 C-81.48107412 25.12686292 -77.27180545 22.75770372 -73.09106445 20.33398438 C-71.57006043 19.45574362 -70.04100557 18.59131416 -68.50463867 17.74023438 C-64.46010366 15.46632869 -60.88425438 13.09152828 -57.34375 10.0859375 C-40.53264217 -3.18879002 -20.38222678 -0.64582083 0 0 Z " fill="#45AE53" transform="translate(659.640625,326.34765625)"/>
<path d="M0 0 C1.37240593 -0.00591408 1.37240593 -0.00591408 2.77253723 -0.01194763 C5.76633237 -0.01860658 8.75856793 0.01038239 11.75219727 0.04077148 C13.8420431 0.04502538 15.93189367 0.04735058 18.02174377 0.0478363 C22.38515878 0.05398237 26.74805653 0.07659934 31.11132812 0.11230469 C36.71262321 0.15777223 42.31345344 0.17234208 47.91491604 0.1760416 C52.2222199 0.18046057 56.52942568 0.19574414 60.83668709 0.21491814 C62.90322119 0.22381116 64.96976577 0.2305359 67.03631401 0.23507881 C69.91371337 0.24408437 72.79068454 0.26643735 75.66796875 0.29296875 C76.52560822 0.29363342 77.38324768 0.2942981 78.26687622 0.29498291 C84.15191787 0.37017959 84.15191787 0.37017959 86.38110352 2.59936523 C86.63180184 4.78830576 86.63180184 4.78830576 86.6327858 7.57193756 C86.63800129 8.63015512 86.64321679 9.68837268 86.64859033 10.77865744 C86.64412888 11.95042485 86.63966744 13.12219226 86.6350708 14.32946777 C86.63819078 15.56708186 86.64131076 16.80469594 86.64452529 18.07981348 C86.65114532 21.52618688 86.64873168 24.9723438 86.64255285 28.41870427 C86.63804416 32.13108792 86.64500422 35.84345208 86.6505127 39.55583191 C86.65942534 46.83276743 86.65747639 54.10966179 86.65168741 61.38659894 C86.64717826 67.29853299 86.64655477 73.21045547 86.64873505 79.12239075 C86.64904151 79.96247678 86.64934798 80.80256281 86.64966373 81.66810599 C86.65030316 83.37450246 86.65095158 85.08089893 86.65160891 86.7872954 C86.65731769 102.80382525 86.65074575 118.82033223 86.64000818 134.83685833 C86.63107217 148.59217808 86.63262406 162.34746407 86.6418457 176.1027832 C86.65253869 192.06037563 86.65676831 208.01794799 86.65062118 223.9755435 C86.64998405 225.6758089 86.64935531 227.37607431 86.64873505 229.07633972 C86.64827222 230.33132074 86.64827222 230.33132074 86.64780004 231.61165491 C86.64607018 237.51933183 86.64899446 243.42699607 86.65369415 249.33467102 C86.65929221 256.53007545 86.65780929 263.72543622 86.64713266 270.92083561 C86.64186139 274.59495519 86.6398438 278.26900186 86.64643097 281.94312096 C86.65345075 285.91854314 86.64509269 289.89384486 86.6350708 293.8692627 C86.63953224 295.04103011 86.64399369 296.21279752 86.64859033 297.42007303 C86.64076708 299.00739937 86.64076708 299.00739937 86.6327858 300.62679291 C86.63246109 301.5453914 86.63213639 302.4639899 86.63180184 303.41042471 C86.38110352 305.59936523 86.38110352 305.59936523 84.38110352 307.59936523 C82.39144897 307.85104752 82.39144897 307.85104752 79.90209961 307.85333252 C78.95985535 307.85897217 78.01761108 307.86461182 77.04681396 307.87042236 C76.00986389 307.8663739 74.97291382 307.86232544 73.90454102 307.8581543 C72.81506165 307.86165894 71.72558228 307.86516357 70.60308838 307.86877441 C66.9873627 307.87760581 63.37183132 307.87173754 59.75610352 307.86499023 C57.25268516 307.86633648 54.74926706 307.86827667 52.24584961 307.87078857 C46.99338788 307.87374175 41.74097708 307.86962558 36.48852539 307.86010742 C30.41161533 307.84922257 24.33483947 307.85274805 18.25793266 307.86376023 C12.41772803 307.87392084 6.57757451 307.87285678 0.73736572 307.86699677 C-1.75063089 307.86565882 -4.2386309 307.86731303 -6.72662354 307.87195587 C-10.19862045 307.87701245 -13.67035658 307.86932296 -17.14233398 307.8581543 C-18.17928406 307.86220276 -19.21623413 307.86625122 -20.28460693 307.87042236 C-21.2268512 307.86478271 -22.16909546 307.85914307 -23.13989258 307.85333252 C-23.96137787 307.85257847 -24.78286316 307.85182442 -25.62924194 307.85104752 C-27.61889648 307.59936523 -27.61889648 307.59936523 -29.61889648 305.59936523 C-31.78643198 289.36676666 -30.81726518 275.17622805 -21.61889648 261.59936523 C-18.67256721 255.0859667 -16.91876709 248.24382036 -15.27124023 241.30639648 C-14.76365852 239.20008432 -14.17562414 237.11309914 -13.55639648 235.03686523 C-5.72765881 206.33149376 -10.56790562 174.05808071 -23.61889648 147.59936523 C-24.11170829 146.80202563 -24.60452009 146.00468603 -25.11226559 145.18318462 C-29.479037 138.05170165 -30.50694986 132.46375218 -30.47460938 124.18652344 C-30.49315475 122.99807831 -30.51170013 121.80963318 -30.5308075 120.58517456 C-30.57348501 117.35979351 -30.58948688 114.13582907 -30.58950734 110.91020608 C-30.5922588 108.20627566 -30.61191832 105.50255885 -30.63080114 102.79870099 C-30.67426758 96.41824159 -30.68471085 90.03829764 -30.67578125 83.65771484 C-30.66732166 77.09405185 -30.72201267 70.53297049 -30.80632597 63.96990138 C-30.87637949 58.31171587 -30.90369615 52.6543668 -30.89789194 46.99575299 C-30.89506945 43.62566553 -30.90880602 40.25774661 -30.96531868 36.88808632 C-31.01693707 33.13126239 -30.99859286 29.38089593 -30.96289062 25.62402344 C-30.99301239 24.5199263 -31.02313416 23.41582916 -31.0541687 22.27827454 C-30.94568951 17.58187182 -30.70330218 14.74331119 -27.39660454 11.25505638 C-24.56531883 9.13631914 -21.68977999 7.34959134 -18.61889648 5.59936523 C-17.82987946 5.07912403 -17.04086243 4.55888283 -16.22793579 4.02287674 C-10.79782039 0.59454437 -6.34677375 -0.1116221 0 0 Z " fill="#316AE4" transform="translate(424.618896484375,370.400634765625)"/>
<path d="M0 0 C0.94082932 0.00359528 1.88165863 0.00719055 2.85099792 0.01089478 C4.3288829 0.01067574 4.3288829 0.01067574 5.83662415 0.01045227 C9.11023623 0.01115185 12.3837922 0.01894632 15.65739441 0.02676392 C17.92040984 0.02862794 20.18342567 0.03005191 22.44644165 0.03105164 C28.41577764 0.03487807 34.38508948 0.04470942 40.35441589 0.05575562 C46.44043145 0.06596705 52.52645089 0.07054868 58.61247253 0.07559204 C70.56365505 0.08633157 82.5148196 0.10340949 94.46598816 0.12442017 C94.82150253 0.75602554 95.17701691 1.38763092 95.54330444 2.03837585 C105.02097563 18.88087829 105.02097563 18.88087829 114.77848816 35.56192017 C115.33987488 36.50744751 115.9012616 37.45297485 116.47966003 38.42715454 C117.80628306 40.66087024 119.13496775 42.89332314 120.46598816 45.12442017 C124.71945766 40.40620103 127.30251404 34.92986852 130.15348816 29.31192017 C133.8814656 22.06266047 137.64658803 14.84898862 141.65348816 7.74942017 C142.02755798 7.08450562 142.40162781 6.41959106 142.78703308 5.73452759 C145.32654037 1.26386796 145.32654037 1.26386796 146.46598816 0.12442017 C149.60158702 0.02907059 152.71512429 -0.00108862 155.85099792 0.01089478 C157.3288829 0.01067574 157.3288829 0.01067574 158.83662415 0.01045227 C162.11023623 0.01115185 165.3837922 0.01894632 168.65739441 0.02676392 C170.92040984 0.02862794 173.18342567 0.03005191 175.44644165 0.03105164 C181.41577764 0.03487807 187.38508948 0.04470942 193.35441589 0.05575562 C199.44043145 0.06596705 205.52645089 0.07054868 211.61247253 0.07559204 C223.56365505 0.08633157 235.5148196 0.10340949 247.46598816 0.12442017 C248.45982186 3.91475212 248.60544094 4.82392855 246.87614441 8.55020142 C246.10650408 9.853486 245.32303758 11.14867013 244.52848816 12.43692017 C243.68406248 13.86728061 242.8429987 15.29963032 242.00505066 16.73379517 C241.36358093 17.82724243 241.36358093 17.82724243 240.70915222 18.94277954 C238.80167749 22.29022538 237.09636345 25.72725232 235.40348816 29.18692017 C232.87845466 34.31540822 230.29542247 39.40054274 227.59098816 44.43692017 C227.26171326 45.05027222 226.93243835 45.66362427 226.59318542 46.29556274 C225.90697049 47.57334796 225.22068977 48.85109785 224.53434753 50.1288147 C222.62113084 53.70254259 220.7299008 57.28780034 218.84098816 60.87442017 C218.22090881 62.05173706 218.22090881 62.05173706 217.58830261 63.25283813 C214.54507905 69.04344 211.53642455 74.85146156 208.53434753 80.66348267 C202.74253794 91.87343672 196.86678443 103.03075439 190.88987732 114.14266968 C185.1058844 124.89747376 179.43981537 135.70986315 173.80973816 146.54580688 C171.38655421 151.1958194 168.9347856 155.83079128 166.48014832 160.46426392 C164.16230458 164.85421745 161.88058529 169.26095365 159.63027954 173.68582153 C158.27211085 176.3560128 156.90856065 179.02344469 155.54524231 181.69100952 C154.87080228 183.01495006 154.19920021 184.34034039 153.53053284 185.66720581 C152.59017386 187.53286813 151.64037069 189.39344338 150.68864441 191.25332642 C150.13958435 192.33686401 149.59052429 193.42040161 149.02482605 194.53677368 C147.46598816 197.12442017 147.46598816 197.12442017 144.46598816 199.12442017 C139.23889335 199.65529425 134.0127003 199.70860202 128.76115417 199.76968384 C127.02764814 199.79776141 125.29434537 199.84550889 123.56193542 199.91323853 C109.23448101 200.47148649 109.23448101 200.47148649 105.10343933 197.32485962 C103.51842032 194.98112655 102.47764251 192.76131172 101.46598816 190.12442017 C100.78636773 188.91140687 100.08841216 187.7083923 99.36833191 186.51895142 C98.71056157 185.32649352 98.05572159 184.13241554 97.40348816 182.93692017 C93.33652484 175.60361131 89.10209474 168.37886354 84.82267761 161.1678772 C81.65987319 155.8367188 78.5086753 150.49915196 75.38005066 145.14785767 C74.85560112 144.25094208 74.85560112 144.25094208 74.32055664 143.33590698 C73.60494268 142.11194147 72.88935143 140.88796269 72.17378235 139.66397095 C71.63779922 138.74720581 71.63779922 138.74720581 71.09098816 137.81192017 C70.73310211 137.19977661 70.37521606 136.58763306 70.00648499 135.9569397 C64.91013107 127.24464567 59.74572774 118.57751559 54.52848816 109.93692017 C49.9659441 102.37648646 45.54536448 94.76852656 41.31632996 87.01724243 C37.04733602 79.24976447 32.4436843 71.68578841 27.86369324 64.09902954 C23.93399708 57.58573205 20.08724012 51.04182665 16.34098816 44.42129517 C14.14180281 40.55439426 11.90522238 36.7109016 9.65348816 32.87442017 C9.24195496 32.17220337 8.83042175 31.46998657 8.40641785 30.74649048 C6.12456205 26.87313249 3.79852618 23.03245045 1.41911316 19.21817017 C0.66464905 18.00435669 0.66464905 18.00435669 -0.10505676 16.76602173 C-1.07763728 15.20645408 -2.05667815 13.65089116 -3.04304504 12.1000061 C-7.26983294 5.31926082 -7.26983294 5.31926082 -7.53401184 1.12442017 C-5.58035878 -0.8292329 -2.60001432 0.00419893 0 0 Z " fill="#45AE5D" transform="translate(607.5340118408203,512.8755798339844)"/>
<path d="M0 0 C0.90387955 -0.0033284 1.80775909 -0.0066568 2.73902893 -0.01008606 C4.65487152 -0.01515921 6.57072297 -0.01749427 8.48657227 -0.01733398 C11.42544043 -0.01951938 14.36393277 -0.0376679 17.30273438 -0.05664062 C19.16015496 -0.05957462 21.01757734 -0.06155938 22.875 -0.0625 C23.75836533 -0.06968552 24.64173065 -0.07687103 25.55186462 -0.08427429 C31.77508486 -0.06085264 31.77508486 -0.06085264 34.00390625 2.16796875 C34.25230324 4.09631741 34.25230324 4.09631741 34.25000191 6.50581551 C34.253984 7.42244724 34.2579661 8.33907898 34.26206887 9.28348744 C34.25333034 10.8038916 34.25333034 10.8038916 34.24441528 12.35501099 C34.24612413 13.42661055 34.24783298 14.49821012 34.24959362 15.6022824 C34.25290525 19.21685515 34.24185729 22.83124495 34.23095703 26.44580078 C34.23039328 29.02734371 34.23070877 31.60888695 34.23184204 34.19042969 C34.23289226 39.76055951 34.22660138 45.33064259 34.21536636 50.90076065 C34.19913284 58.95427289 34.19390557 67.00776246 34.19139038 75.0612893 C34.18700989 88.12664709 34.17369122 101.19197996 34.15478516 114.25732422 C34.13643549 126.95133336 34.12227452 139.64533574 34.11376953 152.33935547 C34.11324408 153.12142286 34.11271864 153.90349026 34.11217727 154.70925666 C34.10956725 158.63254202 34.10703982 162.55582743 34.10455346 166.47911286 C34.08380995 199.04208692 34.04693428 231.60501462 34.00390625 264.16796875 C0.67390625 264.16796875 -32.65609375 264.16796875 -66.99609375 264.16796875 C-67.52003319 209.94247527 -67.52003319 209.94247527 -67.63085938 187.21289062 C-67.70798769 171.52051545 -67.79863787 155.82904792 -67.97680664 140.13745117 C-68.10650787 128.70900261 -68.19027998 117.28129054 -68.21924418 105.85212642 C-68.23617243 99.80172681 -68.27586019 93.75343386 -68.37058449 87.70371056 C-68.45909809 82.00424858 -68.48599318 76.30775196 -68.46649361 70.60766792 C-68.47005835 68.52063731 -68.49576664 66.43350347 -68.54576492 64.34706879 C-68.92271129 47.79973636 -68.92271129 47.79973636 -64.20270348 42.56595802 C-61.05389886 39.65401841 -57.6334385 37.42816058 -53.99609375 35.16796875 C-52.08861055 33.74596379 -50.19067455 32.31092818 -48.30859375 30.85546875 C-47.33277344 30.13488281 -46.35695313 29.41429687 -45.3515625 28.671875 C-38.12470777 23.31529225 -31.08137989 17.70940344 -23.99609375 12.16796875 C-23.28404785 11.61125488 -22.57200195 11.05454102 -21.83837891 10.48095703 C-19.86914552 8.94036243 -17.9010072 7.3983866 -15.93359375 5.85546875 C-15.34400879 5.39350098 -14.75442383 4.9315332 -14.14697266 4.45556641 C-8.94004583 0.36362662 -6.6845917 0.00840169 0 0 Z " fill="#FD6A0E" transform="translate(771.99609375,229.83203125)"/>
<path d="M0 0 C1.63473751 5.02605632 0.25740001 9.13617291 -1.0625 14.0625 C-1.29001953 14.94301025 -1.51753906 15.82352051 -1.75195312 16.73071289 C-3.57384263 23.67203784 -5.63477524 30.53268509 -7.7590332 37.38647461 C-9.97405075 44.63763724 -11.73150297 51.96942694 -13.3515625 59.37475586 C-13.63386719 60.63171265 -13.63386719 60.63171265 -13.921875 61.9140625 C-14.08268555 62.6560791 -14.24349609 63.3980957 -14.40917969 64.16259766 C-15 66 -15 66 -17 68 C-20.32869484 67.66670485 -22.07902189 66.32278468 -24.453125 64.05859375 C-25.071875 63.47529297 -25.690625 62.89199219 -26.328125 62.29101562 C-26.96234375 61.67935547 -27.5965625 61.06769531 -28.25 60.4375 C-28.8996875 59.82197266 -29.549375 59.20644531 -30.21875 58.57226562 C-31.81880287 57.05456842 -33.41213644 55.53042885 -35 54 C-39.52304783 55.48517988 -42.85918588 58.03180655 -46.5 61 C-47.75077064 62.00196585 -49.00208452 63.0032539 -50.25390625 64.00390625 C-50.88184082 64.50809082 -51.50977539 65.01227539 -52.15673828 65.53173828 C-54.88734219 67.70681801 -57.66162838 69.8204261 -60.4375 71.9375 C-65.11810169 75.51623827 -69.72620948 79.17637861 -74.3125 82.875 C-79.44128686 87.00872811 -84.64643662 91.0139134 -89.9375 94.9375 C-96.13717008 99.53954248 -102.16407118 104.31710622 -108.13598633 109.21020508 C-114.10008113 114.0967072 -120.14866958 118.86764833 -126.22509766 123.61328125 C-129.42432737 126.11281698 -132.61851236 128.61877181 -135.8125 131.125 C-136.41787598 131.5988916 -137.02325195 132.0727832 -137.64697266 132.56103516 C-140.41489989 134.67485262 -140.41489989 134.67485262 -143 137 C-143.19435628 138.87384809 -143.38356591 140.74840604 -143.54370117 142.62548828 C-144.49640754 153.30256441 -146.74471979 162.0399878 -155.02734375 169.4609375 C-163.9930106 176.45593302 -172.74401478 177.20757198 -183.8359375 176.31298828 C-188.51214139 175.63666908 -192.12070263 173.54996918 -196 171 C-198.92816552 169.65465996 -198.92816552 169.65465996 -201.39746094 171.02880859 C-202.33364258 171.56328613 -203.26982422 172.09776367 -204.234375 172.6484375 C-205.7956311 173.5310022 -205.7956311 173.5310022 -207.38842773 174.43139648 C-209.05240601 175.39348022 -209.05240601 175.39348022 -210.75 176.375 C-211.89090088 177.02476807 -213.03180176 177.67453613 -214.20727539 178.34399414 C-220.55077641 181.96968863 -226.85629469 185.65271387 -233.09985352 189.44799805 C-238.84442569 192.93363897 -244.64676957 196.31851558 -250.46096802 199.68655396 C-252.1302984 200.65433773 -253.79748851 201.62581037 -255.46459961 202.59741211 C-258.62807467 204.42615674 -261.81193924 206.2145473 -265 208 C-266.01787598 208.60279785 -267.03575195 209.2055957 -268.08447266 209.82666016 C-275.30680599 213.8633891 -279.95385914 214.77917144 -288 213 C-288.95380554 212.79491821 -288.95380554 212.79491821 -289.92687988 212.58569336 C-294.51943752 211.58797487 -299.08443854 210.49145373 -303.64630127 209.36251831 C-307.8533624 208.32289944 -312.06710819 207.31125398 -316.28125 206.30078125 C-317.53006454 206.00096092 -317.53006454 206.00096092 -318.80410767 205.69508362 C-326.05027325 203.96605037 -333.31839009 202.39285921 -340.625 200.9375 C-341.63578613 200.73415039 -342.64657227 200.53080078 -343.68798828 200.32128906 C-347.58958531 199.56023512 -351.00267225 199 -355 199 C-356.52200278 200.78091033 -356.52200278 200.78091033 -357.75 203.125 C-360.77305274 207.98020592 -364.13002765 211.04578883 -369 214 C-369.87914062 214.54011719 -370.75828125 215.08023438 -371.6640625 215.63671875 C-376.01484753 217.41473277 -379.72232263 217.47773542 -384.375 217.4375 C-385.18710937 217.45748047 -385.99921875 217.47746094 -386.8359375 217.49804688 C-391.2980817 217.49447144 -394.36356982 217.03697959 -398.2890625 214.84765625 C-401.23115305 213.13472959 -401.23115305 213.13472959 -404.58984375 213.51171875 C-405.38519531 214.00285156 -406.18054688 214.49398437 -407 215 C-408.01191406 215.56332031 -409.02382813 216.12664062 -410.06640625 216.70703125 C-411.2347494 217.40388438 -412.3999268 218.10606276 -413.5625 218.8125 C-414.2030835 219.19921875 -414.84366699 219.5859375 -415.50366211 219.984375 C-423.67573131 224.96145877 -431.66066669 230.23166103 -439.6640625 235.47363281 C-446.84313844 240.16464272 -454.07213927 244.77932193 -461.3125 249.375 C-465.82991974 252.24434946 -470.32293209 255.14989802 -474.8125 258.0625 C-482.37763125 262.96924276 -489.97636578 267.82182509 -497.60107422 272.63549805 C-502.31463865 275.61921971 -506.98631285 278.64721867 -511.6015625 281.78125 C-512.9477063 282.68641357 -512.9477063 282.68641357 -514.32104492 283.60986328 C-516.02041823 284.75630995 -517.71129325 285.91549301 -519.3918457 287.08935547 C-524.06012336 290.22247382 -527.1764319 291.86247781 -533 291 C-535.7720236 289.08090674 -536.75315546 287.85273568 -537.6875 284.625 C-535.95843577 278.02311841 -526.87229675 273.77336905 -521.4375 270.25 C-514.10435787 265.4285357 -506.92840162 260.44067149 -499.81445312 255.30371094 C-496.45408351 252.88923654 -493.06979267 250.50861595 -489.6875 248.125 C-488.97456787 247.62226563 -488.26163574 247.11953125 -487.52709961 246.6015625 C-486.07593527 245.57832441 -484.62468158 244.55521302 -483.17333984 243.53222656 C-478.90517652 240.52312826 -474.63930707 237.51077816 -470.37353516 234.49829102 C-466.84616456 232.00759658 -463.31731774 229.51905279 -459.78515625 227.03515625 C-453.96650297 222.94042373 -448.1524723 218.84093971 -442.38671875 214.671875 C-441.61875977 214.11693359 -440.85080078 213.56199219 -440.05957031 212.99023438 C-438.53216203 211.88068366 -437.00927366 210.76488131 -435.49121094 209.64257812 C-432.06012952 207.12110409 -428.66396714 204.74473729 -424.94140625 202.671875 C-421.56263147 200.74529947 -418.62341628 198.93260463 -416 196 C-415.27984565 191.12770574 -416.16666351 186.81166208 -417 182 C-416.62040483 174.47136253 -412.1381959 167.09759077 -406.88671875 161.9140625 C-397.97115124 154.61530775 -389.37565977 152.73836628 -377.97900391 153.70263672 C-369.85009813 154.92407852 -363.28673277 159.70548498 -358.33203125 166.05859375 C-354.95233024 170.98443363 -353.59516824 175.04831756 -353 181 C-351.86691406 181.0928125 -350.73382813 181.185625 -349.56640625 181.28125 C-341.93349747 182.12951691 -334.44148842 183.90299938 -326.9375 185.5 C-324.65553074 185.98451612 -322.3733132 186.46768083 -320.09022522 186.94689941 C-318.67926867 187.24313288 -317.26892564 187.54231125 -315.85935974 187.84509277 C-312.47431897 188.55658098 -309.11089469 189.13678164 -305.67797852 189.54101562 C-302 190 -302 190 -299.25 190.9375 C-290.63868909 193.75273626 -281.93376072 195.46129918 -273.546875 191.27734375 C-272.27424155 190.50888458 -271.00905444 189.7280108 -269.75 188.9375 C-268.25553101 188.02941666 -266.76071392 187.12190606 -265.265625 186.21484375 C-264.43869141 185.70808105 -263.61175781 185.20131836 -262.75976562 184.67919922 C-257.95478401 181.75557364 -253.10675565 178.90424317 -248.2644043 176.04312134 C-245.92080997 174.65758104 -243.57904798 173.26896056 -241.23730469 171.8802948 C-235.24674023 168.32801622 -229.25217945 164.78261788 -223.25 161.25 C-222.60224609 160.8684375 -221.95449219 160.486875 -221.28710938 160.09375 C-217.20946275 157.696667 -213.11060801 155.33988456 -209 153 C-209.03480469 151.7315625 -209.03480469 151.7315625 -209.0703125 150.4375 C-209.26232797 138.36795633 -207.63593233 129.95897975 -199.07421875 120.98046875 C-192.40528384 114.82950936 -186.29204925 112.4144188 -177.3125 112.4375 C-176.13482056 112.43459961 -176.13482056 112.43459961 -174.93334961 112.43164062 C-168.51670231 112.60493933 -163.80314106 114.33480037 -158.28515625 117.6875 C-156.0056368 119.24902666 -156.0056368 119.24902666 -153 119 C-150.7944317 117.31114599 -150.7944317 117.31114599 -148.5 115.0625 C-144.90287018 111.72193403 -141.25738477 108.52134509 -137.4375 105.4375 C-134.05149157 102.69735012 -130.73735169 99.91419359 -127.5 97 C-124.33892794 94.15783256 -121.11307093 91.42900355 -117.8125 88.75 C-113.5265903 85.27106075 -109.30928902 81.72461758 -105.125 78.125 C-104.53589844 77.61831787 -103.94679688 77.11163574 -103.33984375 76.58959961 C-102.45425781 75.82788452 -102.45425781 75.82788452 -101.55078125 75.05078125 C-94.28968997 68.80572679 -86.99446571 62.6036885 -79.5625 56.5625 C-74.58583072 52.51393204 -69.71160337 48.35454021 -64.85766602 44.16040039 C-61.62373881 41.37028156 -58.35508526 38.64511403 -55 36 C-56.31595441 33.05351883 -57.69264087 31.10857467 -60.07421875 28.94140625 C-60.95110352 28.11479492 -60.95110352 28.11479492 -61.84570312 27.27148438 C-63.07794272 26.12810193 -64.31762926 24.99269529 -65.56445312 23.86523438 C-66.14517578 23.31287109 -66.72589844 22.76050781 -67.32421875 22.19140625 C-67.86135498 21.69842041 -68.39849121 21.20543457 -68.9519043 20.69750977 C-70 19 -70 19 -69.66723633 16.30053711 C-69.44704834 15.54135986 -69.22686035 14.78218262 -69 14 C-68.25766113 13.84966309 -67.51532227 13.69932617 -66.75048828 13.54443359 C-47.59377825 9.653089 -28.41547048 5.74427016 -9.48828125 0.8359375 C-6.17660809 0.04232266 -3.38807676 -0.16940384 0 0 Z " fill="#FDAA02" transform="translate(829,137)"/>
<path d="M0 0 C14.85 0 29.7 0 45 0 C47.8153125 5.011875 47.8153125 5.011875 50.6875 10.125 C57.29397759 21.84822592 64.10597619 33.44402687 71 45 C75.2534695 40.28178087 77.83652588 34.80544835 80.6875 29.1875 C84.41547744 21.93824031 88.18059987 14.72456845 92.1875 7.625 C92.74860474 6.62762817 92.74860474 6.62762817 93.32104492 5.61010742 C95.86055221 1.13944779 95.86055221 1.13944779 97 0 C98.41225046 -0.0928726 99.82908934 -0.11746772 101.24438477 -0.11352539 C102.59567223 -0.11341209 102.59567223 -0.11341209 103.97425842 -0.11329651 C104.95341721 -0.10813522 105.93257599 -0.10297394 106.94140625 -0.09765625 C107.93881332 -0.0962413 108.9362204 -0.09482635 109.96385193 -0.09336853 C113.16343124 -0.08775114 116.36294169 -0.07519571 119.5625 -0.0625 C121.72591045 -0.05748724 123.88932199 -0.05292395 126.05273438 -0.04882812 C131.36851325 -0.03777607 136.68425171 -0.02102104 142 0 C140.65845574 4.38207698 138.94025746 8.25627595 136.76953125 12.2890625 C136.45602219 12.87360199 136.14251312 13.45814148 135.81950378 14.06039429 C135.15688689 15.29358171 134.49199641 16.52554993 133.82495117 17.75634766 C132.82793261 19.59651646 131.83815759 21.440426 130.84960938 23.28515625 C127.19339798 30.08418637 123.3965233 36.78632366 119.48071289 43.43994141 C117.79129785 46.36083277 116.26891985 49.33161287 114.8125 52.375 C111.8058372 58.48899511 108.59535214 64.46762892 105.3125 70.4375 C101.11321544 78.07770952 97.0096885 85.758607 93 93.5 C87.16661837 104.75859097 81.11643071 115.89307318 75 127 C72.72930676 124.88043923 71.12063767 122.77410107 69.5390625 120.10546875 C69.07491943 119.32719727 68.61077637 118.54892578 68.13256836 117.74707031 C67.6350708 116.90241211 67.13757324 116.05775391 66.625 115.1875 C65.82944702 113.84896973 65.82944702 113.84896973 65.01782227 112.48339844 C63.34049073 109.65836715 61.66967293 106.82956326 60 104 C58.99624722 102.30329462 57.99234494 100.60667766 56.98828125 98.91015625 C54.88436263 95.35294888 52.7834781 91.79396507 50.68359375 88.234375 C46.3033833 80.81441284 41.90096065 73.40766474 37.5 66 C32.03291772 56.79682498 26.56904601 47.5918298 21.125 38.375 C20.3673938 37.0924231 20.3673938 37.0924231 19.59448242 35.78393555 C16.85661854 31.14746582 14.12124087 26.50953506 11.38671875 21.87109375 C10.78907715 20.85805176 10.19143555 19.84500977 9.57568359 18.80126953 C8.4281373 16.85606575 7.28129052 14.91044908 6.13525391 12.96435547 C5.62269043 12.09568848 5.11012695 11.22702148 4.58203125 10.33203125 C4.13061768 9.56608643 3.6792041 8.8001416 3.21411133 8.01098633 C2.18848043 6.31218848 1.1007456 4.6511184 0 3 C0 2.01 0 1.02 0 0 Z " fill="#354455" transform="translate(657,513)"/>
<path d="M0 0 C54.45362903 0 54.45362903 0 69.3125 13.75 C78.5436076 23.52191996 80.47828374 35.08822052 80.1875 48.02734375 C79.51293436 62.31970319 75.59126653 73.12505102 65 83 C46.41663278 98.19294222 23.29192004 93 0 93 C0 62.31 0 31.62 0 0 Z " fill="#2E3B4B" transform="translate(172,752)"/>
<path d="M0 0 C49.92307692 0 49.92307692 0 61 11 C67.47631797 19.37064098 67.84880588 27.40372462 66.69140625 37.76171875 C65.294547 45.83383459 62.32989118 51.53608705 55.8515625 56.71875 C47.38215538 62.57943679 37.92296052 63.30152622 28 63.125 C24.7 63.08375 21.4 63.0425 18 63 C18 72.9 18 82.8 18 93 C12.06 93 6.12 93 0 93 C0 62.31 0 31.62 0 0 Z " fill="#FD640B" transform="translate(641,752)"/>
<path d="M0 0 C3.66322848 2.63495382 6.71154295 5.15759769 9.44921875 8.76171875 C9.95453125 9.41011719 10.45984375 10.05851563 10.98046875 10.7265625 C14.6537087 16.5323223 14.90587413 22.19882698 14.94921875 28.88671875 C14.9555835 29.73387451 14.96194824 30.58103027 14.96850586 31.45385742 C14.76606324 41.48112388 11.21406583 48.43192726 4.44921875 55.76171875 C-4.62905893 62.94868858 -14.30229716 64.52099143 -25.55078125 63.76171875 C-34.47747377 62.23068718 -42.24152903 58.05832747 -47.86328125 50.88671875 C-48.7776989 49.52400721 -49.67455643 48.14929665 -50.55078125 46.76171875 C-50.96457031 46.20355469 -51.37835937 45.64539063 -51.8046875 45.0703125 C-56.58031784 37.63230984 -55.61425092 26.8102124 -53.85546875 18.4609375 C-50.68181686 8.81996978 -44.52966411 2.40200541 -35.55078125 -2.23828125 C-24.1984226 -6.25718194 -10.44150746 -6.24742915 0 0 Z " fill="#FD660F" transform="translate(816.55078125,783.23828125)"/>
<path d="M0 0 C1.7720709 1.88555327 3.16735175 3.87530509 4.61328125 6.01953125 C6.47775416 8.68231369 7.94365322 9.86275469 11 11 C15.69034879 11.68873151 19.02365293 11.47896272 23.3125 9.375 C26.28294423 6.74995627 27.9946314 4.39370071 30 1 C49.19961949 1.67367086 67.24278364 14.4416058 80 28 C81.875 30.6640625 81.875 30.6640625 83 33 C82.16183092 36.20028195 80.84377113 38.2343433 79 41 C78.64400836 43.80144454 78.64400836 43.80144454 78.6875 46.875 C78.66236328 48.41800781 78.66236328 48.41800781 78.63671875 49.9921875 C79.04452548 53.36865179 80.14649671 55.19284726 82 58 C82 58.66 82 59.32 82 60 C85.46595534 61.4229136 85.46595534 61.4229136 89.04296875 62.51953125 C91.24837823 63.14218784 93.04687076 63.79739907 95 65 C100.72364783 77.40123696 96.57639837 94.48260571 93 107 C87.39 107 81.78 107 76 107 C76 108.98 76 110.96 76 113 C75 114 75 114 72.4375 114.0625 C71.633125 114.041875 70.82875 114.02125 70 114 C68.66958591 111.33917182 68.68904099 108.75616373 68.45581055 105.82861328 C67.63357784 95.00924268 67.63357784 95.00924268 62 86 C60.9171875 84.8553125 60.9171875 84.8553125 59.8125 83.6875 C55.78689414 81.27213649 51.52564674 80.15997159 47 79 C47 78.34 47 77.68 47 77 C47.65226562 76.82984375 48.30453125 76.6596875 48.9765625 76.484375 C57.22369471 74.19755958 62.58498428 71.68539774 67 64 C68.29856962 60.10429113 68.26324136 56.37469608 68.3125 52.3125 C68.34150391 51.53455078 68.37050781 50.75660156 68.40039062 49.95507812 C68.47484458 43.0881323 66.57628083 38.12753743 62.2109375 32.828125 C49.1329124 21.58658853 33.01308115 21.69714866 16.64453125 21.5859375 C14.88904442 21.56719346 13.1335663 21.54761773 11.37809753 21.5272522 C6.7932146 21.47626641 2.20830256 21.43646275 -2.37670898 21.39910889 C-7.0695699 21.358857 -11.76231328 21.3078621 -16.45507812 21.2578125 C-25.63663578 21.16145137 -34.81826032 21.07692122 -44 21 C-44 20.34 -44 19.68 -44 19 C-33.35853334 10.32066423 -14.27411595 -3.01952453 0 0 Z " fill="#F7F8F8" transform="translate(271,492)"/>
<path d="M0 0 C6.6 0 13.2 0 20 0 C22.34176219 7.33073382 24.67587409 14.66367403 27 22 C27.20508179 22.64682739 27.41016357 23.29365479 27.62145996 23.96008301 C28.94881029 28.14769821 30.27153228 32.33673962 31.5894165 36.52734375 C32.02449565 37.90892002 32.46078534 39.29011574 32.89837646 40.67089844 C35.55246884 49.04993808 37.99083673 57.44000201 40 66 C40.66 66 41.32 66 42 66 C42.09506836 65.43909668 42.19013672 64.87819336 42.28808594 64.30029297 C43.68039133 56.70963895 45.90951737 49.47041025 48.25 42.125 C49.06198614 39.55274011 49.87073713 36.97946595 50.6796875 34.40625 C51.07510742 33.15070312 51.47052734 31.89515625 51.87792969 30.6015625 C53.67311582 24.83946811 55.38516979 19.05269305 57.05957031 13.25439453 C57.38199707 12.15780518 57.38199707 12.15780518 57.7109375 11.0390625 C57.88931152 10.42240723 58.06768555 9.80575195 58.25146484 9.17041016 C59.32814236 6.048537 60.69915188 3.03531228 62 0 C68.27 0 74.54 0 81 0 C80.24178212 3.79108938 79.3958496 6.91908442 78.07421875 10.5 C77.68943359 11.55316406 77.30464844 12.60632813 76.90820312 13.69140625 C76.50537109 14.78324219 76.10253906 15.87507812 75.6875 17 C73.36445677 23.29938905 71.08699311 29.58584942 69.1484375 36.015625 C66.33170022 45.34444572 63.1047162 54.53583341 59.9375 63.75 C58.99615298 66.49440537 58.05538127 69.23900713 57.11488342 71.98370361 C56.53447864 73.67690922 55.95349773 75.3699175 55.37181091 77.06268311 C55.10465775 77.84089417 54.83750458 78.61910522 54.56225586 79.42089844 C54.33227402 80.09006287 54.10229218 80.75922729 53.86534119 81.44866943 C52.56117299 85.29381657 51.28397863 89.14806412 50 93 C43.73 93 37.46 93 31 93 C27.68625534 84.02056021 24.56506039 74.98125285 21.47363281 65.92358398 C20.63478953 63.46617858 19.79409262 61.00941349 18.953125 58.55273438 C15.9409781 49.7439367 12.96754801 40.92327944 10.0319519 32.08868408 C8.31843457 26.93794591 6.57020467 21.8016546 4.75 16.6875 C4.50765625 15.99978516 4.2653125 15.31207031 4.015625 14.60351562 C3.01950144 11.79109068 2.00515226 9.01200476 0.828125 6.26953125 C0 4 0 4 0 0 Z " fill="#2F3D4D" transform="translate(433,752)"/>
<path d="M0 0 C18.94333765 -0.44398448 18.94333765 -0.44398448 25 3 C28.39487474 6.56929032 29.55339455 9.13527274 30.125 14 C30.27582031 15.13824219 30.42664063 16.27648437 30.58203125 17.44921875 C30.85690762 19.78438339 31.12532383 22.12031912 31.38671875 24.45703125 C32.23256793 31.12294362 33.22452414 36.97387762 38 42 C43.27120548 45.31112707 49.61674048 44.40976957 55.625 44.4375 C57.47544922 44.48680664 57.47544922 44.48680664 59.36328125 44.53710938 C69.04764624 44.593713 75.05964679 42.2935688 83 37 C82.76288954 41.97931972 81.31796775 44.65644623 77.734375 47.94140625 C74.74490711 49.76605895 72.27440202 48.7903729 69 48 C64.77995605 47.51653865 61.62913773 47.68543113 57.75 49.625 C54.69762884 52.26113873 52.86130356 54.41526721 51 58 C50.94682583 59.35328264 50.9272982 60.70821151 50.9375 62.0625 C50.765625 64.109375 50.765625 64.109375 50 66 C40.26389554 73.10076791 26.35821379 74.54954322 14.6875 74.4375 C13.60243164 74.43210205 12.51736328 74.4267041 11.39941406 74.42114258 C1.50074003 74.23463941 -9.89963479 73.33751595 -18 67 C-18.75 64.4765625 -18.75 64.4765625 -19 61.625 C-19.55416645 57.73557249 -19.83419841 56.22106878 -22.25 53 C-27.56779283 49.13251431 -31.3198344 47.38146615 -38 48 C-39.34882408 48.63474075 -40.6846659 49.29848848 -42 50 C-44.5 50.375 -44.5 50.375 -47 50 C-49.3125 48.125 -49.3125 48.125 -51 46 C-51 45.34 -51 44.68 -51 44 C-29.22 44 -7.44 44 15 44 C15 35.75 15 27.5 15 19 C10.05 19 5.1 19 0 19 C0 12.73 0 6.46 0 0 Z " fill="#FBFBFB" transform="translate(272,581)"/>
<path d="M0 0 C3.79154694 2.57924155 6.19237019 5.64442059 8.39453125 9.62890625 C8.74035248 10.22729309 9.08617371 10.82567993 9.44247437 11.44219971 C10.54498978 13.97448293 10.670759 15.82496722 10.71337891 18.58105469 C10.7332486 19.56176941 10.75311829 20.54248413 10.77359009 21.55291748 C10.7851413 22.60408752 10.7966925 23.65525757 10.80859375 24.73828125 C10.8279599 25.82022766 10.84732605 26.90217407 10.86727905 28.01690674 C10.92703362 31.47082651 10.97344422 34.92477969 11.01953125 38.37890625 C11.05771478 40.72136866 11.09676673 43.06381709 11.13671875 45.40625 C11.23273198 51.14702178 11.31677869 56.88785928 11.39453125 62.62890625 C5.78453125 62.62890625 0.17453125 62.62890625 -5.60546875 62.62890625 C-5.60546875 60.31890625 -5.60546875 58.00890625 -5.60546875 55.62890625 C-6.26546875 55.62890625 -6.92546875 55.62890625 -7.60546875 55.62890625 C-7.93546875 56.61890625 -8.26546875 57.60890625 -8.60546875 58.62890625 C-10.27734375 59.98046875 -10.27734375 59.98046875 -12.35546875 61.25390625 C-13.0309375 61.67929687 -13.70640625 62.1046875 -14.40234375 62.54296875 C-20.68568774 65.64007802 -29.30490566 65.79922342 -35.98828125 63.98046875 C-41.00054887 61.75067669 -44.0144658 58.4217057 -46.60546875 53.62890625 C-48.52800995 47.86128265 -48.62633087 41.74915834 -45.98046875 36.25390625 C-38.80601518 28.32424704 -30.4011111 24.38649519 -19.60546875 23.62890625 C-15.60378219 23.563222 -11.60716188 23.56976793 -7.60546875 23.62890625 C-7.86100929 22.16781562 -8.13547247 20.71002529 -8.41796875 19.25390625 C-8.56878906 18.44179688 -8.71960938 17.6296875 -8.875 16.79296875 C-9.48091817 14.27069984 -9.48091817 14.27069984 -12.60546875 12.62890625 C-15.38038808 12.4051693 -18.01933499 12.29742298 -20.79296875 12.31640625 C-21.93946899 12.31833984 -21.93946899 12.31833984 -23.10913086 12.3203125 C-28.52702876 12.41291625 -32.7277093 13.13813547 -37.60546875 15.62890625 C-38.64159146 14.22338326 -39.658918 12.80398931 -40.66796875 11.37890625 C-41.23644531 10.59 -41.80492187 9.80109375 -42.390625 8.98828125 C-43.60546875 6.62890625 -43.60546875 6.62890625 -43.58984375 4.5 C-42.18472515 1.82915948 -40.50389971 1.1996275 -37.79296875 -0.05859375 C-36.92027344 -0.47496094 -36.04757812 -0.89132812 -35.1484375 -1.3203125 C-24.63354076 -5.66517767 -10.07927878 -4.94800958 0 0 Z " fill="#2E3B4C" transform="translate(305.60546875,782.37109375)"/>
<path d="M0 0 C0.81662109 -0.01611328 1.63324219 -0.03222656 2.47460938 -0.04882812 C9.49499343 -0.05442206 15.95327442 1.26238929 21.4375 6 C21.96859375 6.43699219 22.4996875 6.87398437 23.046875 7.32421875 C28.64454042 14.10805613 29.28675407 20.32352927 29.296875 28.8125 C29.31341125 29.88878662 29.32994751 30.96507324 29.34698486 32.07397461 C29.39528531 35.48687551 29.41679662 38.89933136 29.4375 42.3125 C29.46567458 44.63674092 29.49560407 46.96096128 29.52734375 49.28515625 C29.60103995 54.96090085 29.65072456 60.63640097 29.6875 66.3125 C24.0775 66.3125 18.4675 66.3125 12.6875 66.3125 C12.1925 63.3425 12.1925 63.3425 11.6875 60.3125 C11.2028125 60.72242188 10.718125 61.13234375 10.21875 61.5546875 C3.2228672 67.17830098 -2.90429952 68.84499801 -11.85546875 68.625 C-17.40923942 67.91863807 -21.59499879 65.43758711 -25.25 61.25 C-29.30952247 55.46825588 -29.14573919 49.15638697 -28.3125 42.3125 C-25.90078098 36.63472607 -21.81455015 33.4402701 -16.24609375 31.05078125 C-15.28896484 30.68533203 -15.28896484 30.68533203 -14.3125 30.3125 C-13.343125 29.920625 -12.37375 29.52875 -11.375 29.125 C-4.11116717 27.19786068 3.21406722 27.17208059 10.6875 27.3125 C10.605 26.054375 10.5225 24.79625 10.4375 23.5 C10.39109375 22.79230469 10.3446875 22.08460938 10.296875 21.35546875 C9.81388779 19.20274221 9.81388779 19.20274221 8.12109375 17.57421875 C4.77437984 15.83908457 1.68090329 15.86566081 -2 15.9375 C-2.71027344 15.94330078 -3.42054688 15.94910156 -4.15234375 15.95507812 C-9.68691888 16.09142259 -14.19565116 17.11956478 -19.3125 19.3125 C-20.34570481 17.71627344 -21.36372429 16.11020894 -22.375 14.5 C-22.94347656 13.60667969 -23.51195312 12.71335937 -24.09765625 11.79296875 C-25.3125 9.3125 -25.3125 9.3125 -24.3125 6.3125 C-22.203125 5.21484375 -22.203125 5.21484375 -19.5625 4.25 C-18.70140625 3.92902344 -17.8403125 3.60804688 -16.953125 3.27734375 C-16.08171875 2.95894531 -15.2103125 2.64054688 -14.3125 2.3125 C-13.57128906 1.94898438 -12.83007812 1.58546875 -12.06640625 1.2109375 C-8.04451406 -0.10116917 -4.20369669 -0.0163568 0 0 Z " fill="#2F3D4D" transform="translate(403.3125,778.6875)"/>
<path d="M0 0 C0.99 0.66 1.98 1.32 3 2 C2.42365861 6.75481646 0.44931479 9.97048212 -2 14 C-4.94228606 13.44832136 -7.74690232 12.78108036 -10.625 11.9375 C-15.67698512 10.64310993 -20.81594573 10.60823491 -26 11 C-27.35618499 12.12534105 -27.35618499 12.12534105 -27.0625 15.0625 C-27.041875 16.031875 -27.02125 17.00125 -27 18 C-25.41751931 18.58564246 -23.8339436 19.1683258 -22.25 19.75 C-20.74759766 20.30494141 -20.74759766 20.30494141 -19.21484375 20.87109375 C-17.121502 21.60617974 -15.00884514 22.28903515 -12.87890625 22.91015625 C-5.37379629 25.11866631 0.86380609 28.04647518 5.1796875 34.86328125 C7.21210099 40.1572345 7.00888292 46.34671735 5.0078125 51.609375 C1.00898087 58.3418712 -4.90571819 61.69099469 -12.38671875 63.61328125 C-25.67884118 65.58027695 -36.41049511 63.33914464 -48 57 C-48 52.85323868 -47.5223055 51.68791935 -45.5 48.25 C-45.0359375 47.45078125 -44.571875 46.6515625 -44.09375 45.828125 C-43.7328125 45.22484375 -43.371875 44.6215625 -43 44 C-39.92114481 44.66626707 -37.2940104 45.74954052 -34.4375 47.0625 C-28.1419844 49.62354555 -21.6468933 50.32155746 -15.17578125 47.9765625 C-14.45777344 47.65429688 -13.73976563 47.33203125 -13 47 C-13 45.02 -13 43.04 -13 41 C-17.38281699 38.60998459 -21.45470451 37.29223231 -26.3125 36.1875 C-33.85475614 34.32044911 -39.78712141 31.61448841 -45 25.75 C-47.05801911 20.09044746 -47.58628175 14.98684371 -45.875 9.1875 C-35.85550802 -7.84563637 -16.21001653 -6.13473001 0 0 Z " fill="#2F3D4D" transform="translate(598,783)"/>
<path d="M0 0 C25.46539379 0 25.46539379 0 34.76171875 8.63671875 C42.04702795 16.48650711 41.51274837 26.03746784 41.31640625 36.15234375 C41.06211293 41.70955715 39.96745622 46.25207004 37 51 C36.63777344 51.5878125 36.27554688 52.175625 35.90234375 52.78125 C32.20962963 57.8884614 26.78642859 60.07119047 21 62 C14.07 62 7.14 62 0 62 C0 41.54 0 21.08 0 0 Z " fill="#FCFCFC" transform="translate(191,767)"/>
<path d="M0 0 C0 6.93 0 13.86 0 21 C5.28 21 10.56 21 16 21 C16 25.95 16 30.9 16 36 C10.72 36 5.44 36 0 36 C0.09683328 40.80598846 0.19949419 45.61109296 0.31738281 50.41650391 C0.35570852 52.0518424 0.39055507 53.68726624 0.421875 55.32275391 C0.46744842 57.6712091 0.52545367 60.01907495 0.5859375 62.3671875 C0.59748871 63.10057343 0.60903992 63.83395935 0.62094116 64.58956909 C0.61868097 68.74977105 0.61868097 68.74977105 3 72 C7.34395071 72.27917421 11.64350967 72.08542138 16 72 C16 76.62 16 81.24 16 86 C8.0950532 88.47998331 -0.42270499 89.41480028 -8.4375 86.9375 C-14.4100242 82.42168902 -17.24212517 78.34260723 -19 71 C-19.24487836 68.21422896 -19.23486114 65.45489446 -19.1953125 62.66015625 C-19.1924826 61.89319931 -19.18965271 61.12624237 -19.18673706 60.33604431 C-19.17563475 57.91136379 -19.15054967 55.48706691 -19.125 53.0625 C-19.1149573 51.4082085 -19.10583372 49.75391115 -19.09765625 48.09960938 C-19.07572817 44.06626077 -19.04126843 40.0331952 -19 36 C-22.3 36 -25.6 36 -29 36 C-29 31.05 -29 26.1 -29 21 C-25.7 21 -22.4 21 -19 21 C-19 15.06 -19 9.12 -19 3 C-14.45898438 2.26757812 -14.45898438 2.26757812 -9.91796875 1.53515625 C-1.54744526 0 -1.54744526 0 0 0 Z " fill="#354353" transform="translate(352,759)"/>
<path d="M0 0 C4.62 0 9.24 0 14 0 C14 21.12 14 42.24 14 64 C5.09 64 -3.82 64 -13 64 C-15.59170113 52.76929509 -17.15778042 43.82757754 -17.0625 32.5625 C-17.05798828 31.54478516 -17.05347656 30.52707031 -17.04882812 29.47851562 C-17.03712437 26.98561491 -17.02072848 24.49283926 -17 22 C-15.96939453 21.61038086 -15.96939453 21.61038086 -14.91796875 21.21289062 C-14.01691406 20.86419922 -13.11585938 20.51550781 -12.1875 20.15625 C-10.84751953 19.64288086 -10.84751953 19.64288086 -9.48046875 19.11914062 C-5.87631693 17.49301544 -3.60447608 15.57328734 -2 12 C-1.03025388 7.98761129 -0.50268698 4.11289351 0 0 Z " fill="#FAFAFA" transform="translate(220,536)"/>
<path d="M0 0 C0 5.61 0 11.22 0 17 C-2.000625 17.04125 -4.00125 17.0825 -6.0625 17.125 C-11.74980686 17.54053932 -14.82338668 18.49286728 -18.828125 22.52734375 C-21.83155086 26.30164891 -21.22958094 30.55847573 -21.31640625 35.1640625 C-21.33718735 36.07127045 -21.35796844 36.97847839 -21.37937927 37.91317749 C-21.44487135 40.8170398 -21.50375814 43.72099405 -21.5625 46.625 C-21.60568555 48.59115542 -21.64929985 50.55730147 -21.69335938 52.5234375 C-21.80055239 57.34886362 -21.90182081 62.1743824 -22 67 C-24.97922593 67.02683987 -27.95821295 67.04676037 -30.9375 67.0625 C-31.78763672 67.07087891 -32.63777344 67.07925781 -33.51367188 67.08789062 C-34.32255859 67.09111328 -35.13144531 67.09433594 -35.96484375 67.09765625 C-36.7137085 67.10289307 -37.46257324 67.10812988 -38.23413086 67.11352539 C-40 67 -40 67 -41 66 C-41.09930533 64.01112506 -41.12799462 62.01869583 -41.12939453 60.02734375 C-41.13254669 58.74931885 -41.13569885 57.47129395 -41.13894653 56.15454102 C-41.13715675 54.74886033 -41.1351058 53.34317995 -41.1328125 51.9375 C-41.13348558 50.50642887 -41.13445564 49.07535785 -41.13571167 47.64428711 C-41.13718844 44.64142776 -41.13503476 41.6385981 -41.13037109 38.63574219 C-41.12467381 34.77847429 -41.12795292 30.92127596 -41.13394356 27.06401062 C-41.13754974 24.10786409 -41.13641032 21.15173417 -41.13381577 18.19558716 C-41.13314665 16.77295931 -41.13397437 15.35032997 -41.13629532 13.92770386 C-41.13882274 11.94268826 -41.13429042 9.95766741 -41.12939453 7.97265625 C-41.12859894 6.84093994 -41.12780334 5.70922363 -41.12698364 4.54321289 C-41 2 -41 2 -40 1 C-37.30345146 0.92680379 -34.63308542 0.90757463 -31.9375 0.9375 C-31.17888672 0.94201172 -30.42027344 0.94652344 -29.63867188 0.95117188 C-27.75908129 0.9629932 -25.87953101 0.98092922 -24 1 C-23.77213542 3.05078125 -23.54427083 5.1015625 -23.31640625 7.15234375 C-23.18113386 9.01140229 -23.18113386 9.01140229 -22 10 C-21.32904297 9.16855469 -21.32904297 9.16855469 -20.64453125 8.3203125 C-14.07034135 0.44249859 -10.11010527 -0.26960281 0 0 Z " fill="#FD6710" transform="translate(759,779)"/>
<path d="M0 0 C5.94 0 11.88 0 18 0 C18 21.12 18 42.24 18 64 C12.06 64 6.12 64 0 64 C0 42.88 0 21.76 0 0 Z " fill="#2C3A4A" transform="translate(520,781)"/>
<path d="M0 0 C5.30644228 4.93622537 6.91618692 10.4088784 7.1875 17.5625 C6.91138821 24.79662894 4.74806941 29.02731671 0.1875 34.5 C-3.60329141 37.30941901 -7.74988301 37.30900667 -12.328125 37.12109375 C-17.22355233 36.10228099 -20.33941098 33.44124878 -23.3125 29.5 C-25.53493355 25.30369455 -25.67885073 21.22013082 -25.6875 16.5625 C-25.71199219 15.87220703 -25.73648438 15.18191406 -25.76171875 14.47070312 C-25.79107282 9.30927991 -24.52431831 6.47653695 -21.3125 2.5 C-14.80415624 -3.52021798 -7.93690616 -3.59407071 0 0 Z " fill="#FDFBF9" transform="translate(806.3125,795.5)"/>
<path d="M0 0 C21.23076923 0 21.23076923 0 28.0625 5.4375 C31.34343531 10.00574673 30.75291468 15.6807972 30 21 C28.69957087 25.33706949 27.09029097 28.1550245 23.5 30.9375 C19.89835708 32.46819824 16.80030167 33.12727501 12.890625 33.09765625 C11.8701709 33.09390991 11.8701709 33.09390991 10.82910156 33.09008789 C9.97799805 33.08098389 9.12689453 33.07187988 8.25 33.0625 C5.5275 33.041875 2.805 33.02125 0 33 C0 22.11 0 11.22 0 0 Z " fill="#FDF9F5" transform="translate(659,767)"/>
<path d="M0 0 C3.50625 -0.061875 7.0125 -0.12375 10.625 -0.1875 C11.71893066 -0.21481201 12.81286133 -0.24212402 13.93994141 -0.27026367 C20.75186846 -0.32837312 25.20472986 0.42540909 30.375 5.1875 C32.53340565 8.92320209 32.70000507 11.7828963 32 16 C30.67462675 19.2087984 29.86057932 20.57227298 26.74536133 22.12060547 C23.75070714 23.07985352 21.39988807 23.22887581 18.26171875 23.1953125 C16.66166992 23.18564453 16.66166992 23.18564453 15.02929688 23.17578125 C13.37510742 23.15064453 13.37510742 23.15064453 11.6875 23.125 C10.56537109 23.11597656 9.44324219 23.10695313 8.28710938 23.09765625 C5.52464783 23.07414594 2.7622964 23.03827662 0 23 C0 15.41 0 7.82 0 0 Z " fill="#F4F5F6" transform="translate(271,536)"/>
<path d="M0 0 C2.46210148 1.67446238 3.84253604 3.45338566 4.55859375 6.34375 C4.84832124 10.79366711 4.46072185 12.64539762 1.5859375 16.18359375 C0.7403125 16.84359375 -0.1053125 17.50359375 -0.9765625 18.18359375 C-1.3065625 18.51359375 -1.6365625 18.84359375 -1.9765625 19.18359375 C-6.88255362 19.73778904 -10.76594037 19.92479097 -15.0390625 17.30859375 C-18.23643759 13.80179526 -18.45319476 11.07673023 -18.37109375 6.44921875 C-17.9765625 4.18359375 -17.9765625 4.18359375 -15.6015625 1.12109375 C-10.93144319 -2.05503005 -5.1443911 -2.12485719 0 0 Z " fill="#303D4D" transform="translate(535.9765625,749.81640625)"/>
<path d="M0 0 C1.06863281 0.01804687 2.13726562 0.03609375 3.23828125 0.0546875 C4.04652344 0.07789063 4.85476563 0.10109375 5.6875 0.125 C6.15819944 4.83199441 6.54312871 8.73507379 3.4375 12.5625 C-0.95923624 16.65945877 -4.25327689 17.65045444 -10.18359375 17.50390625 C-12.3125 17.125 -12.3125 17.125 -14.875 15 C-16.56603291 11.61793419 -17.02545945 9.84823269 -16.3125 6.125 C-11.54410923 1.22036949 -6.69646668 -0.14717509 0 0 Z " fill="#F5F6F7" transform="translate(292.3125,816.875)"/>
<path d="M0 0 C0.57563851 9.78585462 0.57563851 9.78585462 -3 14 C-6.20498407 16.01821613 -8.80694192 16.29717119 -12.5625 16.3125 C-13.51253906 16.32925781 -14.46257812 16.34601562 -15.44140625 16.36328125 C-18 16 -18 16 -19.796875 14.72265625 C-21.50032981 12.28361868 -21.72648471 9.9376813 -21.5859375 7.0078125 C-20.83805689 4.44507494 -19.95266569 3.58029112 -17.8125 2 C-12.20872033 -1.01897319 -6.17924443 -0.4238811 0 0 Z " fill="#F7F7F8" transform="translate(414,817)"/>
<path d="M0 0 C5.28 0 10.56 0 16 0 C16 0.33 16 0.66 16 1 C11.38 1 6.76 1 2 1 C2 21.46 2 41.92 2 63 C6.95 63 11.9 63 17 63 C16.98952637 61.85934082 16.97905273 60.71868164 16.96826172 59.54345703 C16.93212283 55.32050706 16.90912188 51.09757081 16.89013672 46.87451172 C16.88006516 45.04506127 16.86640724 43.21562697 16.84912109 41.38623047 C16.82492323 38.76005066 16.81352868 36.13408325 16.8046875 33.5078125 C16.79436493 32.68693146 16.78404236 31.86605042 16.77340698 31.02029419 C16.77300816 29.01210858 16.8775046 27.00444618 17 25 C17.66 24.34 18.32 23.68 19 23 C19 36.86 19 50.72 19 65 C13.06 65 7.12 65 1 65 C0 64 0 64 -0.12025452 61.45005798 C-0.11803391 60.31532547 -0.11581329 59.18059296 -0.11352539 58.01147461 C-0.11344986 56.73022202 -0.11337433 55.44896942 -0.11329651 54.12889099 C-0.10818909 52.72004152 -0.10297309 51.31119244 -0.09765625 49.90234375 C-0.09579202 48.46887766 -0.09436814 47.03541093 -0.09336853 45.60194397 C-0.08954372 41.82240043 -0.07971377 38.0428951 -0.06866455 34.2633667 C-0.05844963 30.40930702 -0.05387074 26.55524118 -0.04882812 22.70117188 C-0.03809145 15.13409512 -0.02049497 7.56705777 0 0 Z " fill="#FD843A" transform="translate(718,781)"/>
<path d="M0 0 C0.99 0.66 1.98 1.32 3 2 C3.33413568 5.00722111 3.53346301 7.10151765 3 10 C0.92744557 12.45636081 -0.36369034 12.88864581 -3.5 13.4375 C-6.89834723 12.84278924 -8.01241034 11.79734842 -10 9 C-10.45319325 5.82764724 -10.52990283 3.93512264 -8.9375 1.125 C-5.92517484 -0.62409203 -3.40497373 -0.30401551 0 0 Z " fill="#F5F5F6" transform="translate(366,534)"/>
<path d="M0 0 C2.7912125 1.98322993 3.82597224 3.12986121 4.5 6.5 C4 9 4 9 2.4375 11.375 C0 13 0 13 -3.625 12.9375 C-7 12 -7 12 -9 9 C-9.32502803 5.87973093 -9.51151479 3.85252465 -7.875 1.125 C-5.07553259 -0.55468045 -3.20195936 -0.45742277 0 0 Z " fill="#EFF0F1" transform="translate(341,637)"/>
<path d="M0 0 C1.9375 1.125 1.9375 1.125 3 3 C3.38976435 6.11811483 3.50422245 8.11019567 1.9375 10.875 C-1.1069286 12.64273274 -3.5631012 12.36823916 -7 12 C-8.9375 10.875 -8.9375 10.875 -10 9 C-10.38976435 5.88188517 -10.50422245 3.88980433 -8.9375 1.125 C-5.8930714 -0.64273274 -3.4368988 -0.36823916 0 0 Z " fill="#F5F5F6" transform="translate(242,638)"/>
<path d="M0 0 C1.9375 1.125 1.9375 1.125 3 3 C3.38976435 6.11811483 3.50422245 8.11019567 1.9375 10.875 C-1.1069286 12.64273274 -3.5631012 12.36823916 -7 12 C-8.9375 10.875 -8.9375 10.875 -10 9 C-10.38976435 5.88188517 -10.50422245 3.88980433 -8.9375 1.125 C-5.8930714 -0.64273274 -3.4368988 -0.36823916 0 0 Z " fill="#F6F6F7" transform="translate(208,536)"/>
<path d="M0 0 C2 1.625 2 1.625 3 4 C2.875 7.125 2.875 7.125 2 10 C-1.46923881 12.31282587 -2.92205575 12.42478586 -7 12 C-8.875 10.875 -8.875 10.875 -10 9 C-10.38976435 5.88188517 -10.50422245 3.88980433 -8.9375 1.125 C-5.85928089 -0.66235303 -3.47093932 -0.43386742 0 0 Z " fill="#F0F1F2" transform="translate(290,483)"/>
<path d="M0 0 C21.78 0 43.56 0 66 0 C66 0.33 66 0.66 66 1 C65.39500671 1.00808685 64.79001343 1.01617371 64.16668701 1.02450562 C57.87246604 1.11053259 51.57856068 1.21003556 45.28466797 1.31738281 C42.93543801 1.35567666 40.58614934 1.39052879 38.23681641 1.421875 C34.86078906 1.46751627 31.48516609 1.52551299 28.109375 1.5859375 C27.05820496 1.59748871 26.00703491 1.60903992 24.92401123 1.62094116 C23.45293915 1.6507457 23.45293915 1.6507457 21.95214844 1.68115234 C21.09055115 1.69447601 20.22895386 1.70779968 19.34124756 1.7215271 C16.08722434 2.10856745 13.85315562 3.50461932 11.0625 5.125 C8.44932041 6.23362164 6.81370126 6.42205519 4 6 C1.6875 4.125 1.6875 4.125 0 2 C0 1.34 0 0.68 0 0 Z " fill="#E3E5E8" transform="translate(221,625)"/>
<path d="M0 0 C0.6875 1.73046875 0.6875 1.73046875 1 4 C-0.76881933 7.24089594 -3.08287738 9.74662039 -6 12 C-9.6875 12.0625 -9.6875 12.0625 -13 11 C-15.8822406 10.18063272 -18.55509106 9.82509704 -21.546875 9.68359375 C-22.39121094 9.64169922 -23.23554688 9.59980469 -24.10546875 9.55664062 C-24.97816406 9.51732422 -25.85085938 9.47800781 -26.75 9.4375 C-27.63816406 9.39431641 -28.52632813 9.35113281 -29.44140625 9.30664062 C-31.62745963 9.20086385 -33.81362089 9.09877454 -36 9 C-36 8.67 -36 8.34 -36 8 C-35.32533691 7.99589111 -34.65067383 7.99178223 -33.95556641 7.98754883 C-30.84453839 7.95428292 -27.73538435 7.88360492 -24.625 7.8125 C-23.56410156 7.80669922 -22.50320313 7.80089844 -21.41015625 7.79492188 C-13.2592446 7.56989671 -5.94466763 5.94466763 0 0 Z " fill="#D8DADE" transform="translate(354,618)"/>
<path d="M0 0 C2.33936818 2.12669835 3.80653848 4.06224856 5 7 C5 7.99 5 8.98 5 10 C-14.47 10 -33.94 10 -54 10 C-54 9.67 -54 9.34 -54 9 C-35.52 8.67 -17.04 8.34 2 8 C1.34 6.68 0.68 5.36 0 4 C0 2.68 0 1.36 0 0 Z " fill="#4AB160" transform="translate(669,668)"/>
<path d="M0 0 C-0.66 0 -1.32 0 -2 0 C-2.144375 0.804375 -2.28875 1.60875 -2.4375 2.4375 C-3 5 -3 5 -4 6 C-6.67058851 6.14115161 -9.32432238 6.04247107 -12 6 C-13.0625 3.625 -13.0625 3.625 -14 1 C-13.67 0.34 -13.34 -0.32 -13 -1 C-11.07421875 -1.484375 -11.07421875 -1.484375 -8.6875 -1.75 C-7.51767578 -1.89695312 -7.51767578 -1.89695312 -6.32421875 -2.046875 C-3.69866432 -1.99392264 -2.23526243 -1.32990442 0 0 Z " fill="#232F3E" transform="translate(346,631)"/>
<path d="M0 0 C0.33 1.32 0.66 2.64 1 4 C1.66 4 2.32 4 3 4 C3.33 3.01 3.66 2.02 4 1 C4.08096803 2.45742463 4.13917774 3.91612807 4.1875 5.375 C4.22230469 6.18710937 4.25710938 6.99921875 4.29296875 7.8359375 C4.19628906 8.55007813 4.09960938 9.26421875 4 10 C3.01 10.66 2.02 11.32 1 12 C0.28293018 13.98248715 -0.38290413 15.98415349 -1 18 C-1.66 18.99 -2.32 19.98 -3 21 C-3.66 21 -4.32 21 -5 21 C-1.92482916 6.21867882 -1.92482916 6.21867882 0 0 Z " fill="#356EE7" transform="translate(412,602)"/>
<path d="M0 0 C0.66 0.33 1.32 0.66 2 1 C-0.77762123 4.60062011 -3.73991357 7.83047153 -7 11 C-6.67 11.99 -6.34 12.98 -6 14 C-5.34 14 -4.68 14 -4 14 C-4 14.66 -4 15.32 -4 16 C-2.35 16 -0.7 16 1 16 C1 16.33 1 16.66 1 17 C-5.3 17.48461538 -5.3 17.48461538 -8.4375 15.3125 C-10 13 -10 13 -10.6875 10.625 C-9.34875251 5.51341869 -4.21111027 2.80740684 0 0 Z " fill="#FEAF14" transform="translate(302,411)"/>
<path d="M0 0 C0.77537109 0.36158203 0.77537109 0.36158203 1.56640625 0.73046875 C1.56640625 1.39046875 1.56640625 2.05046875 1.56640625 2.73046875 C0.94765625 2.85421875 0.32890625 2.97796875 -0.30859375 3.10546875 C-2.62480207 3.60244231 -2.62480207 3.60244231 -4.43359375 5.73046875 C-6.07704282 6.49111916 -7.74781787 7.19389973 -9.43359375 7.85546875 C-10.32046875 8.20867187 -11.20734375 8.561875 -12.12109375 8.92578125 C-14.43359375 9.73046875 -14.43359375 9.73046875 -16.43359375 9.73046875 C-16.43359375 10.39046875 -16.43359375 11.05046875 -16.43359375 11.73046875 C-18.08359375 11.73046875 -19.73359375 11.73046875 -21.43359375 11.73046875 C-17.61512656 8.52063769 -13.6702692 5.91176405 -9.37109375 3.41796875 C-8.75943359 3.04607422 -8.14777344 2.67417969 -7.51757812 2.29101562 C-2.99907186 -0.33216045 -2.99907186 -0.33216045 0 0 Z " fill="#55B560" transform="translate(596.43359375,342.26953125)"/>
<path d="M0 0 C0.87914062 0.00902344 1.75828125 0.01804687 2.6640625 0.02734375 C4.8178271 0.05075423 6.97145014 0.0866199 9.125 0.125 C9.125 0.455 9.125 0.785 9.125 1.125 C8.53332031 1.18558594 7.94164062 1.24617187 7.33203125 1.30859375 C2.45662128 1.81793174 2.45662128 1.81793174 -2.375 2.625 C-4.76870405 3.10374081 -7.14360794 3.48562269 -9.5625 3.8125 C-10.32949219 3.91949219 -11.09648437 4.02648437 -11.88671875 4.13671875 C-13.875 4.125 -13.875 4.125 -15.875 2.125 C-10.49292923 -0.11605897 -5.71754456 -0.11193988 0 0 Z " fill="#4A5868" transform="translate(286.875,778.875)"/>
<path d="M0 0 C0.33 0.66 0.66 1.32 1 2 C1.66 2 2.32 2 3 2 C3 4.31 3 6.62 3 9 C2.01 9 1.02 9 0 9 C0 14.61 0 20.22 0 26 C-2.5820296 23.4179704 -2.26098178 21.64490292 -2.2734375 18.12304688 C-2.26570312 17.36056641 -2.25796875 16.59808594 -2.25 15.8125 C-2.25773438 15.06935547 -2.26546875 14.32621094 -2.2734375 13.56054688 C-2.25631242 8.67561657 -1.54681002 4.63429193 0 0 Z " fill="#FD8A40" transform="translate(764,798)"/>
<path d="M0 0 C3.60074101 3.25781329 6.30476601 7.13336204 7 12 C7.07209892 14.67281007 7.04458378 17.3249733 7 20 C6.67 20 6.34 20 6 20 C5.896875 19.2575 5.79375 18.515 5.6875 17.75 C5.19806881 14.98066659 5.19806881 14.98066659 3.5 13.125 C1.43185613 10.19512952 1.3778515 7.52661398 1 4 C0.69096017 2.66082739 0.37057089 1.32346746 0 0 Z " fill="#FD792B" transform="translate(701,763)"/>
<path d="M0 0 C1.32 0.33 2.64 0.66 4 1 C4.33 2.65 4.66 4.3 5 6 C3.02 7.32 1.04 8.64 -1 10 C-1.66 9.01 -2.32 8.02 -3 7 C-2.34 6.67 -1.68 6.34 -1 6 C-0.34227572 2.97065509 -0.34227572 2.97065509 0 0 Z " fill="#364252" transform="translate(395,561)"/>
<path d="M0 0 C-2.30887138 2.11324525 -3.58935314 2.96283755 -6.74902344 3.2487793 C-7.77543945 3.19117432 -8.80185547 3.13356934 -9.859375 3.07421875 C-10.97441406 3.01943359 -12.08945312 2.96464844 -13.23828125 2.90820312 C-14.39714844 2.83537109 -15.55601562 2.76253906 -16.75 2.6875 C-18.51150391 2.5956543 -18.51150391 2.5956543 -20.30859375 2.50195312 C-23.20680836 2.34879544 -26.10341002 2.18095765 -29 2 C-29 1.67 -29 1.34 -29 1 C-28.38479492 0.97494385 -27.76958984 0.9498877 -27.13574219 0.92407227 C-24.34029844 0.80781513 -21.54516702 0.68522358 -18.75 0.5625 C-17.78191406 0.52318359 -16.81382812 0.48386719 -15.81640625 0.44335938 C-14.88183594 0.40146484 -13.94726562 0.35957031 -12.984375 0.31640625 C-12.12553711 0.27974854 -11.26669922 0.24309082 -10.38183594 0.20532227 C-8.01461215 0.06532679 -8.01461215 0.06532679 -5.82910156 -0.54711914 C-3.58836145 -1.10192065 -2.1705798 -0.69768636 0 0 Z " fill="#57626F" transform="translate(307,654)"/>
<path d="M0 0 C5.94 0 11.88 0 18 0 C15 3 15 3 11.64453125 3.29296875 C10.37996094 3.25816406 9.11539063 3.22335937 7.8125 3.1875 C6.54019531 3.16042969 5.26789062 3.13335938 3.95703125 3.10546875 C2.49330078 3.05326172 2.49330078 3.05326172 1 3 C0.67 2.01 0.34 1.02 0 0 Z " fill="#FCE0CC" transform="translate(641,845)"/>
<path d="M0 0 C4.40277438 0.78271545 6.23981362 4.0343881 8.8125 7.5 C4.90411134 7.5 3.69655893 5.99432124 0.8125 3.5 C-0.1775 4.49 -1.1675 5.48 -2.1875 6.5 C-2.56968767 4.84385343 -2.90145102 3.17542976 -3.1875 1.5 C-2.1875 0.5 -2.1875 0.5 0 0 Z " fill="#323F50" transform="translate(248.1875,464.5)"/>
<path d="M0 0 C0.8353125 0.37125 0.8353125 0.37125 1.6875 0.75 C-0.64583333 3.08333333 -2.97916667 5.41666667 -5.3125 7.75 C-6.3025 7.75 -7.2925 7.75 -8.3125 7.75 C-7.98035849 4.65001254 -7.2579988 3.6954988 -5 1.4375 C-2.3125 -0.25 -2.3125 -0.25 0 0 Z " fill="#384555" transform="translate(526.3125,749.25)"/>
<path d="M0 0 C2.97 0 5.94 0 9 0 C9 0.33 9 0.66 9 1 C6.36 1 3.72 1 1 1 C1 3.97 1 6.94 1 10 C3.6739124 10.89130413 6.23723823 11.47731534 9 12 C9 12.33 9 12.66 9 13 C6.03 13 3.06 13 0 13 C0 8.71 0 4.42 0 0 Z " fill="#273547" transform="translate(324,781)"/>
<path d="M0 0 C4.95 0 9.9 0 15 0 C15 0.33 15 0.66 15 1 C17.64 1.33 20.28 1.66 23 2 C23 2.33 23 2.66 23 3 C15.00023956 3.20483028 7.73865554 3.13480153 0 1 C0 0.67 0 0.34 0 0 Z " fill="#56606F" transform="translate(560,844)"/>
<path d="M0 0 C0.33 0 0.66 0 1 0 C1.25028811 1.58013217 1.47440946 3.16442306 1.6875 4.75 C1.81511719 5.63171875 1.94273437 6.5134375 2.07421875 7.421875 C1.98321474 10.58306697 1.19290886 11.77062948 -1 14 C-1.66 14 -2.32 14 -3 14 C-2.01 9.38 -1.02 4.76 0 0 Z " fill="#5182E8" transform="translate(410,609)"/>
<path d="M0 0 C1.875 0.125 1.875 0.125 4 1 C4.66666667 3 5.33333333 5 6 7 C8.03243548 7.96877057 8.03243548 7.96877057 10 8 C8.35 8.33 6.7 8.66 5 9 C4.16094435 7.87926138 3.32892169 6.75325453 2.5 5.625 C2.0359375 4.99851562 1.571875 4.37203125 1.09375 3.7265625 C0 2 0 2 0 0 Z " fill="#4FB569" transform="translate(710,703)"/>
<path d="M0 0 C1.65 0 3.3 0 5 0 C3.25 3.875 3.25 3.875 1 5 C-1.3329866 5.04022391 -3.66706666 5.04320247 -6 5 C-6.33 4.34 -6.66 3.68 -7 3 C-5.5459375 2.814375 -5.5459375 2.814375 -4.0625 2.625 C-2.5465625 2.315625 -2.5465625 2.315625 -1 2 C-0.67 1.34 -0.34 0.68 0 0 Z " fill="#4AB166" transform="translate(751,707)"/>
<path d="M0 0 C0.66 0.66 1.32 1.32 2 2 C-2.74144487 8.04942966 -2.74144487 8.04942966 -5 10 C-5.66 10 -6.32 10 -7 10 C-5.6062718 5.56541027 -3.39417765 3.12621626 0 0 Z " fill="#3F4C5D" transform="translate(559,784)"/>
<path d="M0 0 C5.61 0 11.22 0 17 0 C17 0.33 17 0.66 17 1 C12.71 1 8.42 1 4 1 C3.34 2.32 2.68 3.64 2 5 C1.34 5 0.68 5 0 5 C0 3.35 0 1.7 0 0 Z " fill="#626B77" transform="translate(347,599)"/>
<path d="M0 0 C0.33 0 0.66 0 1 0 C1.17835515 4.54805635 0.99785435 7.8794254 -1 12 C-1.33 12 -1.66 12 -2 12 C-2.66 8.7 -3.32 5.4 -4 2 C-3.01 2.33 -2.02 2.66 -1 3 C-0.67 2.01 -0.34 1.02 0 0 Z " fill="#4076E8" transform="translate(415,544)"/>
<path d="M0 0 C0.66 0.33 1.32 0.66 2 1 C-0.23972261 4.53640412 -2.10798056 5.60286482 -6 7 C-7.95216435 8.95216435 -8.84826645 10.53199953 -10 13 C-10.4375 10.875 -10.4375 10.875 -10 8 C-7.08292104 4.79278147 -3.59174051 2.39449367 0 0 Z " fill="#FEB926" transform="translate(302,411)"/>
<path d="M0 0 C2 1.8125 2 1.8125 4 4 C4 4.99 4 5.98 4 7 C4.66 7 5.32 7 6 7 C5.67 8.32 5.34 9.64 5 11 C2.25722422 7.80009492 0.3697164 4.99500618 -1 1 C-0.67 0.67 -0.34 0.34 0 0 Z " fill="#51B469" transform="translate(629,562)"/>
<path d="M0 0 C2.97 0.33 5.94 0.66 9 1 C7.02 1.99 7.02 1.99 5 3 C4.01 3.66 3.02 4.32 2 5 C1.01 5 0.02 5 -1 5 C-0.67 3.35 -0.34 1.7 0 0 Z " fill="#3A4656" transform="translate(182,520)"/>
<path d="M0 0 C0.99 0.66 1.98 1.32 3 2 C-0.63 4.31 -4.26 6.62 -8 9 C-8 8.01 -8 7.02 -8 6 C-7.01 5.67 -6.02 5.34 -5 5 C-5 4.34 -5 3.68 -5 3 C-3.35 2.67 -1.7 2.34 0 2 C0 1.34 0 0.68 0 0 Z " fill="#FEB30B" transform="translate(317,415)"/>
<path d="M0 0 C0.66 0 1.32 0 2 0 C3.65 3.3 5.3 6.6 7 10 C3 9 3 9 1.25 6.125 C0 3 0 3 0 0 Z " fill="#50B45F" transform="translate(615,576)"/>
<path d="M0 0 C0.99 0.33 1.98 0.66 3 1 C0.24829249 3.9555377 -2.41970299 6.11563315 -6 8 C-6.66 8 -7.32 8 -8 8 C-7.67 6.68 -7.34 5.36 -7 4 C-5.35 4 -3.7 4 -2 4 C-1.34 2.68 -0.68 1.36 0 0 Z " fill="#FEB716" transform="translate(359,388)"/>
<path d="M0 0 C-0.56371414 3.26954202 -1.49962266 4.82575883 -4 7 C-4.99 6.67 -5.98 6.34 -7 6 C-7 5.01 -7 4.02 -7 3 C-2.77777778 0 -2.77777778 0 0 0 Z " fill="#56B560" transform="translate(610,334)"/>
<path d="M0 0 C0.66 0.33 1.32 0.66 2 1 C1.2884375 1.61875 1.2884375 1.61875 0.5625 2.25 C-1.16266518 4.182185 -1.56584875 5.48192275 -2 8 C-4.31 8.33 -6.62 8.66 -9 9 C-6 6 -3 3 0 0 Z " fill="#FDB116" transform="translate(770,176)"/>
<path d="M0 0 C1.98 0 3.96 0 6 0 C7.59789351 4.95346987 6.28306814 9.13282415 5 14 C4.67 14 4.34 14 4 14 C4 10.04 4 6.08 4 2 C2.68 1.34 1.36 0.68 0 0 Z " fill="#FDC236" transform="translate(823,137)"/>
<path d="M0 0 C0.33 0 0.66 0 1 0 C1.24900646 1.93505023 1.47356242 3.87325934 1.6875 5.8125 C1.81511719 6.89144531 1.94273437 7.97039063 2.07421875 9.08203125 C2 12 2 12 0.64453125 13.88671875 C-1 15 -1 15 -3 15 C-2.690625 14.01 -2.38125 13.02 -2.0625 12 C-0.91566793 8.02268878 -0.43287644 4.11232621 0 0 Z " fill="#FC883B" transform="translate(689,780)"/>
<path d="M0 0 C2.33936818 2.12669835 3.80653848 4.06224856 5 7 C5 7.99 5 8.98 5 10 C2.69 10 0.38 10 -2 10 C-0.68 9.34 0.64 8.68 2 8 C1.67 7.4225 1.34 6.845 1 6.25 C0 4 0 4 0 0 Z " fill="#66BF77" transform="translate(669,668)"/>
<path d="M0 0 C0.66 0.99 1.32 1.98 2 3 C-2.39453125 7.00390625 -2.39453125 7.00390625 -4 8 C-4.99 7.67 -5.98 7.34 -7 7 C-4.69 4.69 -2.38 2.38 0 0 Z " fill="#323F4D" transform="translate(184,599)"/>
<path d="M0 0 C0.66 0 1.32 0 2 0 C3.18005182 3.68766192 3.20993972 7.15110517 3 11 C2.01 12.485 2.01 12.485 1 14 C0.20046862 10.71303767 -0.09658936 9.28976808 1 6 C0.34 5.34 -0.32 4.68 -1 4 C-0.625 1.875 -0.625 1.875 0 0 Z " fill="#3B4652" transform="translate(337,542)"/>
<path d="M0 0 C0.7425 0.0825 1.485 0.165 2.25 0.25 C2.58 0.91 2.91 1.57 3.25 2.25 C2.3125 4.375 2.3125 4.375 1.25 6.25 C1.25 5.26 1.25 4.27 1.25 3.25 C-1.39 3.58 -4.03 3.91 -6.75 4.25 C-3.42692308 0.31153846 -3.42692308 0.31153846 0 0 Z " fill="#3A4555" transform="translate(334.75,471.75)"/>
<path d="M0 0 C0.33 0 0.66 0 1 0 C1.38133299 1.9914056 1.71325582 3.99279077 2 6 C1.67 6.33 1.34 6.66 1 7 C-1.33944736 6.71269945 -3.6739143 6.38063221 -6 6 C-6 5.01 -6 4.02 -6 3 C-3.03 3.495 -3.03 3.495 0 4 C0 2.68 0 1.36 0 0 Z " fill="#3D4755" transform="translate(352,661)"/>
<path d="M0 0 C0 3.38023517 -0.87455622 5.83468937 -2 9 C-2.66 9 -3.32 9 -4 9 C-4 10.98 -4 12.96 -4 15 C-4.33 15 -4.66 15 -5 15 C-5.42277492 8.86976372 -4.99795398 5.96715495 -1 1 C-0.67 0.67 -0.34 0.34 0 0 Z " fill="#545E6C" transform="translate(327,632)"/>
<path d="M0 0 C0.33 0 0.66 0 1 0 C1.33 2.64 1.66 5.28 2 8 C2.33 8 2.66 8 3 8 C3 9.98 3 11.96 3 14 C1.68 14 0.36 14 -1 14 C-0.67 9.38 -0.34 4.76 0 0 Z " fill="#FC701D" transform="translate(813,808)"/>
<path d="M0 0 C0.86625 0.556875 0.86625 0.556875 1.75 1.125 C1.42 1.785 1.09 2.445 0.75 3.125 C-1.57156597 3.53229228 -3.9068787 3.86938677 -6.25 4.125 C-6.25 3.135 -6.25 2.145 -6.25 1.125 C-2.80384615 -1.09038462 -2.80384615 -1.09038462 0 0 Z " fill="#FD6F19" transform="translate(691.25,808.875)"/>
<path d="M0 0 C-0.33 0.99 -0.66 1.98 -1 3 C-1.99 2.67 -2.98 2.34 -4 2 C-5.89212737 1.77820215 -7.78884472 1.59385985 -9.6875 1.4375 C-10.68136719 1.35371094 -11.67523438 1.26992188 -12.69921875 1.18359375 C-13.83810547 1.09271484 -13.83810547 1.09271484 -15 1 C-15 0.67 -15 0.34 -15 0 C-4.44191344 -1.33257403 -4.44191344 -1.33257403 0 0 Z " fill="#545E6D" transform="translate(413,793)"/>
<path d="M0 0 C0.33 0.99 0.66 1.98 1 3 C-1.31 4.98 -3.62 6.96 -6 9 C-6.99 8.34 -7.98 7.68 -9 7 C-6.03 4.69 -3.06 2.38 0 0 Z " fill="#FC731F" transform="translate(730,256)"/>
<path d="M0 0 C0.33 0 0.66 0 1 0 C1.33 3.63 1.66 7.26 2 11 C1.01 11.495 1.01 11.495 0 12 C-0.19477739 10.37585622 -0.38059458 8.75063577 -0.5625 7.125 C-0.66691406 6.22007812 -0.77132812 5.31515625 -0.87890625 4.3828125 C-1 2 -1 2 0 0 Z " fill="#384554" transform="translate(552,794)"/>
<path d="M0 0 C0.66 1.32 1.32 2.64 2 4 C-0.31 5.98 -2.62 7.96 -5 10 C-3.84414715 6.08788267 -2.64465038 3.1254959 0 0 Z " fill="#FDB313" transform="translate(420,301)"/>
<path d="M0 0 C0.99 0 1.98 0 3 0 C2.5205537 4.21912747 1.83374881 6.79663178 -1 10 C-1.02689216 8.52093108 -1.04634621 7.04172517 -1.0625 5.5625 C-1.07410156 4.73878906 -1.08570313 3.91507812 -1.09765625 3.06640625 C-1 1 -1 1 0 0 Z " fill="#FDB51C" transform="translate(681,288)"/>
<path d="M0 0 C0.66 0.33 1.32 0.66 2 1 C-5.11389522 8.66742597 -5.11389522 8.66742597 -10 10 C-7.02911382 6.00073014 -3.87051275 3.07881696 0 0 Z " fill="#FDB71D" transform="translate(692,242)"/>
<path d="M0 0 C0 0.66 0 1.32 0 2 C-0.99 2 -1.98 2 -3 2 C-3.226875 2.639375 -3.45375 3.27875 -3.6875 3.9375 C-5 6 -5 6 -7.625 6.75 C-8.800625 6.87375 -8.800625 6.87375 -10 7 C-3.18421053 0 -3.18421053 0 0 0 Z " fill="#FDB518" transform="translate(431,294)"/>
<path d="M0 0 C2.625 -0.1875 2.625 -0.1875 5 0 C2.42215154 2.64752004 0.08351902 4.94432065 -3 7 C-2.38722388 4.03824877 -1.74627478 2.61941217 0 0 Z " fill="#FEB51A" transform="translate(721,241)"/>
<path d="M0 0 C0.99 0.33 1.98 0.66 3 1 C1.8803014 2.00593243 0.7540588 3.0045849 -0.375 4 C-1.00148438 4.556875 -1.62796875 5.11375 -2.2734375 5.6875 C-4 7 -4 7 -6 7 C-4.61990379 3.66476748 -3.15049348 1.81392049 0 0 Z " fill="#FDAF0E" transform="translate(733,233)"/>
<path d="M0 0 C0.99 0 1.98 0 3 0 C2.1875 2.9375 2.1875 2.9375 1 6 C0.01 6.33 -0.98 6.66 -2 7 C-1.125 2.25 -1.125 2.25 0 0 Z " fill="#FD7421" transform="translate(827,824)"/>
<path d="M0 0 C0.33 0.66 0.66 1.32 1 2 C0.67 2.66 0.34 3.32 0 4 C0.66 4 1.32 4 2 4 C1.67 5.65 1.34 7.3 1 9 C0.67 8.34 0.34 7.68 0 7 C-0.66 7 -1.32 7 -2 7 C-1.125 1.125 -1.125 1.125 0 0 Z " fill="#FB7323" transform="translate(767,793)"/>
<path d="M0 0 C1.45742463 -0.08096803 2.91612807 -0.13917774 4.375 -0.1875 C5.18710937 -0.22230469 5.99921875 -0.25710938 6.8359375 -0.29296875 C7.55007813 -0.19628906 8.26421875 -0.09960938 9 0 C9.66 0.99 10.32 1.98 11 3 C9.54257537 3.08096803 8.08387193 3.13917774 6.625 3.1875 C5.81289063 3.22230469 5.00078125 3.25710938 4.1640625 3.29296875 C3.44992187 3.19628906 2.73578125 3.09960938 2 3 C1.34 2.01 0.68 1.02 0 0 Z " fill="#4E5969" transform="translate(280,791)"/>
<path d="M0 0 C1.53656962 2.4404341 2.02089707 3.70744102 1.8125 6.625 C1 9 1 9 -2 11 C-1.125 3.375 -1.125 3.375 0 0 Z " fill="#505C6C" transform="translate(491,762)"/>
<path d="M0 0 C0 0.66 0 1.32 0 2 C0.99 2 1.98 2 3 2 C3.33 3.32 3.66 4.64 4 6 C3.113125 5.525625 2.22625 5.05125 1.3125 4.5625 C-1.57042756 3.20262851 -3.87610623 2.45939614 -7 2 C-4.35261084 0.5393715 -3.10551666 0 0 0 Z " fill="#FD7924" transform="translate(682,766)"/>
<path d="M0 0 C1.5625 1.25 1.5625 1.25 3 3 C2.8125 5.125 2.8125 5.125 2 7 C1.01 7.495 1.01 7.495 0 8 C-0.99 7.34 -1.98 6.68 -3 6 C-2.01 6 -1.02 6 0 6 C-0.185625 5.38125 -0.37125 4.7625 -0.5625 4.125 C-1 2 -1 2 0 0 Z " fill="#434D5A" transform="translate(383,625)"/>
<path d="M0 0 C2.72426311 2.35277269 3.8141763 4.62496331 5 8 C3.68 8 2.36 8 1 8 C0.67 5.36 0.34 2.72 0 0 Z " fill="#50B35E" transform="translate(607,561)"/>
<path d="M0 0 C1.2065625 0.0309375 1.2065625 0.0309375 2.4375 0.0625 C3.0975 1.3825 3.7575 2.7025 4.4375 4.0625 C3.4475 4.0625 2.4575 4.0625 1.4375 4.0625 C1.4375 3.4025 1.4375 2.7425 1.4375 2.0625 C-0.5425 3.0525 -0.5425 3.0525 -2.5625 4.0625 C-2.8925 3.0725 -3.2225 2.0825 -3.5625 1.0625 C-2.5625 0.0625 -2.5625 0.0625 0 0 Z " fill="#333E4F" transform="translate(270.5625,459.9375)"/>
<path d="M0 0 C0.66 0.33 1.32 0.66 2 1 C1 4 1 4 -1 5 C-2.99960012 5.039992 -5.00047242 5.04346799 -7 5 C-2.25 1.125 -2.25 1.125 0 0 Z " fill="#FDB114" transform="translate(591,307)"/>
<path d="M0 0 C0.99 0 1.98 0 3 0 C2.45276317 3.37462715 1.9451 5.08235 0 8 C-1.125 2.25 -1.125 2.25 0 0 Z " fill="#FD741E" transform="translate(704,792)"/>
<path d="M0 0 C0.33 0 0.66 0 1 0 C1 3.3 1 6.6 1 10 C0.01 9.67 -0.98 9.34 -2 9 C-1.34 6.03 -0.68 3.06 0 0 Z " fill="#4F5B6A" transform="translate(486,779)"/>
<path d="M0 0 C0.66 0.33 1.32 0.66 2 1 C1.625 3.4375 1.625 3.4375 1 6 C0.01 6.495 0.01 6.495 -1 7 C-1 6.01 -1 5.02 -1 4 C-1.66 4 -2.32 4 -3 4 C-2.67 3.01 -2.34 2.02 -2 1 C-1.34 0.67 -0.68 0.34 0 0 Z " fill="#384451" transform="translate(385,520)"/>
<path d="M0 0 C2.625 -0.1875 2.625 -0.1875 5 0 C5.33 0.99 5.66 1.98 6 3 C3.36 3 0.72 3 -2 3 C-1.34 2.01 -0.68 1.02 0 0 Z " fill="#45505E" transform="translate(290,459)"/>
<path d="M0 0 C0.66 0.33 1.32 0.66 2 1 C-0.6598561 4.44216672 -3.90288286 4.99504674 -8 6 C-5.54080489 3.3651481 -3.42227589 1.25483449 0 0 Z " fill="#FDB51A" transform="translate(574,317)"/>
<path d="M0 0 C0.66 0.66 1.32 1.32 2 2 C-3.75 7 -3.75 7 -6 7 C-4.60667426 3.63279613 -3.0210714 2.0140476 0 0 Z " fill="#FEB913" transform="translate(742,226)"/>
<path d="M0 0 C0.66 0.66 1.32 1.32 2 2 C-0.31 3.65 -2.62 5.3 -5 7 C-5.33 6.01 -5.66 5.02 -6 4 C-4.02 2.68 -2.04 1.36 0 0 Z " fill="#FDB416" transform="translate(750,220)"/>
<path d="M0 0 C0.99 0 1.98 0 3 0 C3.625 2.3125 3.625 2.3125 4 5 C3.01 6.485 3.01 6.485 2 8 C1.34 5.36 0.68 2.72 0 0 Z " fill="#3E4A5A" transform="translate(461,835)"/>
<path d="M0 0 C0.66 0 1.32 0 2 0 C2.33 0.99 2.66 1.98 3 3 C-1.62921525 4.0161692 -5.34462607 3.83796731 -10 3 C-10 2.67 -10 2.34 -10 2 C-9.04287109 1.90912109 -9.04287109 1.90912109 -8.06640625 1.81640625 C-6.82697266 1.69072266 -6.82697266 1.69072266 -5.5625 1.5625 C-4.73878906 1.48128906 -3.91507813 1.40007813 -3.06640625 1.31640625 C-1.01337975 1.21069185 -1.01337975 1.21069185 0 0 Z " fill="#FD7321" transform="translate(804,830)"/>
<path d="M0 0 C0.33 0.66 0.66 1.32 1 2 C1.99 2.33 2.98 2.66 4 3 C2.75 4.5625 2.75 4.5625 1 6 C-1.1875 5.6875 -1.1875 5.6875 -3 5 C-2.01 3.35 -1.02 1.7 0 0 Z " fill="#FD7827" transform="translate(811,822)"/>
<path d="M0 0 C-0.8125 1.9375 -0.8125 1.9375 -2 4 C-2.99 4.33 -3.98 4.66 -5 5 C-5.33 5.66 -5.66 6.32 -6 7 C-6.66 6.67 -7.32 6.34 -8 6 C-3.38461538 0 -3.38461538 0 0 0 Z " fill="#FC6D1A" transform="translate(776,786)"/>
<path d="M0 0 C3.3 0 6.6 0 10 0 C9.67 1.65 9.34 3.3 9 5 C8.34 4.67 7.68 4.34 7 4 C7 3.01 7 2.02 7 1 C4.69 1 2.38 1 0 1 C0 0.67 0 0.34 0 0 Z " fill="#354455" transform="translate(504,752)"/>
<path d="M0 0 C2.99324263 1.0975223 3.84610901 1.67682892 5.25 4.625 C5.4975 5.40875 5.745 6.1925 6 7 C5.34 7.66 4.68 8.32 4 9 C0 2.25 0 2.25 0 0 Z " fill="#54B56D" transform="translate(637,578)"/>
<path d="M0 0 C4.42857143 5.14285714 4.42857143 5.14285714 5 9 C2 8 2 8 0.25 5.0625 C-0.1625 4.051875 -0.575 3.04125 -1 2 C-0.67 1.34 -0.34 0.68 0 0 Z " fill="#485464" transform="translate(712,532)"/>
<path d="M0 0 C3.66881155 0.70554068 6.70450534 2.27735506 10 4 C5.82412255 5.39195915 3.86525224 3.82323219 0 2 C0 1.34 0 0.68 0 0 Z " fill="#3F4B5D" transform="translate(555,827)"/>
<path d="M0 0 C0.33 0 0.66 0 1 0 C1 2.97 1 5.94 1 9 C0.01 9 -0.98 9 -2 9 C-1.34 6.03 -0.68 3.06 0 0 Z " fill="#455260" transform="translate(480,799)"/>
<path d="M0 0 C0 0.66 0 1.32 0 2 C0.66 2.33 1.32 2.66 2 3 C-2.29 2.67 -6.58 2.34 -11 2 C-11 1.67 -11 1.34 -11 1 C-3.375 0 -3.375 0 0 0 Z " fill="#616B79" transform="translate(585,791)"/>
<path d="M0 0 C3.65316671 1.24976756 4.78065836 1.67098753 7 5 C6.01 5.99 5.02 6.98 4 8 C3.71125 7.236875 3.4225 6.47375 3.125 5.6875 C2.03730987 2.84970692 2.03730987 2.84970692 0 0 Z " fill="#36424F" transform="translate(341,637)"/>
<path d="M0 0 C0.66 0.33 1.32 0.66 2 1 C1.1875 3.4375 1.1875 3.4375 0 6 C-0.99 6.33 -1.98 6.66 -3 7 C-1.125 1.125 -1.125 1.125 0 0 Z " fill="#419F59" transform="translate(795,521)"/>
<path d="M0 0 C1.32 0 2.64 0 4 0 C3.25 1.9375 3.25 1.9375 2 4 C-0.125 4.75 -0.125 4.75 -2 5 C-1.34 3.35 -0.68 1.7 0 0 Z " fill="#3C4C5E" transform="translate(753,514)"/>
<path d="M0 0 C0 0.66 0 1.32 0 2 C-0.66 2 -1.32 2 -2 2 C-2.66 3.32 -3.32 4.64 -4 6 C-4.66 6 -5.32 6 -6 6 C-6.33 5.01 -6.66 4.02 -7 3 C-2.25 0 -2.25 0 0 0 Z " fill="#58B862" transform="translate(552,367)"/>
<path d="M0 0 C0.66 0.33 1.32 0.66 2 1 C1.67 1.99 1.34 2.98 1 4 C-1.64 4.33 -4.28 4.66 -7 5 C-4.702779 3.25728062 -2.40133271 1.60088848 0 0 Z " fill="#5DBB68" transform="translate(559,362)"/>
<path d="M0 0 C-1 3 -1 3 -3.0625 4.1875 C-3.701875 4.455625 -4.34125 4.72375 -5 5 C-5 4.34 -5 3.68 -5 3 C-5.66 2.67 -6.32 2.34 -7 2 C-4.35261084 0.5393715 -3.10551666 0 0 0 Z " fill="#3D4958" transform="translate(599,838)"/>
<path d="M0 0 C1.32 0 2.64 0 4 0 C4.33 1.65 4.66 3.3 5 5 C4.01 5.495 4.01 5.495 3 6 C2.01 4.02 1.02 2.04 0 0 Z " fill="#52B56B" transform="translate(681,654)"/>
<path d="M0 0 C0.66 0.66 1.32 1.32 2 2 C1.01 3.98 0.02 5.96 -1 8 C-1.99 7.34 -2.98 6.68 -4 6 C-2.68 4.02 -1.36 2.04 0 0 Z " fill="#51B66A" transform="translate(786,645)"/>
<path d="M0 0 C0.66 0.33 1.32 0.66 2 1 C2.1875 3.375 2.1875 3.375 2 6 C1.01 6.66 0.02 7.32 -1 8 C-1.33 6.68 -1.66 5.36 -2 4 C-1.01 4 -0.02 4 1 4 C0.67 2.68 0.34 1.36 0 0 Z " fill="#49535F" transform="translate(393,540)"/>
<path d="M0 0 C-0.28875 0.556875 -0.5775 1.11375 -0.875 1.6875 C-2.0413253 4.08494645 -3.0339881 6.51596939 -4 9 C-4.33 9 -4.66 9 -5 9 C-5.36666667 3.5 -5.36666667 3.5 -3.625 1.125 C-2 0 -2 0 0 0 Z " fill="#CED1D6" transform="translate(361,534)"/>
<path d="M0 0 C3.465 1.485 3.465 1.485 7 3 C6.34 3.66 5.68 4.32 5 5 C2.875 4.625 2.875 4.625 1 4 C0.67 2.68 0.34 1.36 0 0 Z " fill="#FDB011" transform="translate(663,251)"/>
<path d="M0 0 C1.32 0.33 2.64 0.66 4 1 C1.69 2.65 -0.62 4.3 -3 6 C-2 2 -2 2 0 0 Z " fill="#FEB112" transform="translate(763,209)"/>
<path d="M0 0 C1.65 0 3.3 0 5 0 C3.37660195 1.70884005 1.70680947 3.37446717 0 5 C-0.66 5 -1.32 5 -2 5 C-1.34 3.35 -0.68 1.7 0 0 Z " fill="#FDB319" transform="translate(784,192)"/>
<path d="M0 0 C1.32 0 2.64 0 4 0 C4 1.32 4 2.64 4 4 C3.34 3.67 2.68 3.34 2 3 C1.67 3.33 1.34 3.66 1 4 C0.01 4.495 0.01 4.495 -1 5 C-0.67 3.35 -0.34 1.7 0 0 Z " fill="#FEBB1B" transform="translate(760,151)"/>
</svg>
